<svg width="25" height="24" viewBox="0 0 25 24" fill="none" xmlns="http://www.w3.org/2000/svg">
<g clip-path="url(#clip0_10_1638)">
<path d="M12.1176 24C18.81 24 24.2353 18.6274 24.2353 12C24.2353 5.37258 18.81 0 12.1176 0C5.42526 0 0 5.37258 0 12C0 18.6274 5.42526 24 12.1176 24Z" fill="#B6C4CF"/>
<path d="M17.6722 1.33276C18.9712 3.24751 19.7279 5.55301 19.7243 8.03331C19.7148 14.6607 14.2818 20.0257 7.58943 20.0162C5.59333 20.0134 3.71083 19.5326 2.05176 18.6836C4.22375 21.8852 7.91221 23.9942 12.1 24.0001C18.7924 24.0096 24.2254 18.6446 24.2349 12.0172C24.2416 7.36651 21.5756 3.3302 17.6722 1.33276Z" fill="#8D9CA8"/>
<path d="M12.118 22.4493C17.9455 22.4493 22.6696 17.7711 22.6696 12.0002C22.6696 6.22927 17.9455 1.55103 12.118 1.55103C6.29051 1.55103 1.56641 6.22927 1.56641 12.0002C1.56641 17.7711 6.29051 22.4493 12.118 22.4493Z" fill="#F5F8F9"/>
<path d="M19.0821 4.15063C19.5005 5.36878 19.7269 6.67471 19.7249 8.03315C19.7154 14.6606 14.2825 20.0255 7.59006 20.0161C6.71299 20.0149 5.85813 19.9205 5.03418 19.7441C6.90309 21.4216 9.38186 22.4453 12.1029 22.4491C17.9304 22.4573 22.6612 17.7858 22.6695 12.0149C22.674 8.88163 21.285 6.06895 19.0821 4.15063Z" fill="#E8EDF2"/>
<path d="M15.4058 16.4078L11.0681 16.4017L11.9235 13.2972L13.9001 12.6923C14.2855 12.5744 14.5012 12.1699 14.3819 11.7888C14.2626 11.4078 13.8534 11.1946 13.468 11.3125L12.3784 11.6459L13.6402 7.06593C13.7462 6.68109 13.5166 6.28415 13.1273 6.17934C12.7381 6.07462 12.3365 6.30154 12.2305 6.68638L10.7247 12.152L8.60551 12.8005C8.22011 12.9185 8.00436 13.3229 8.12369 13.704C8.22064 14.0136 8.50886 14.2124 8.82032 14.2128C8.89217 14.2129 8.9653 14.2025 9.03758 14.1803L10.2697 13.8033L9.40755 16.9328C9.34777 17.1498 9.39363 17.3819 9.53161 17.5606C9.66959 17.7394 9.88392 17.8445 10.1114 17.8448L15.4038 17.8522C15.8073 17.8528 16.1348 17.5299 16.1354 17.1311C16.1359 16.7322 15.8093 16.4084 15.4058 16.4078Z" fill="#B6C4CF"/>
</g>
<defs>
<clipPath id="clip0_10_1638">
<rect width="24.2353" height="24" fill="white"/>
</clipPath>
</defs>
</svg>
