<svg width="25" height="24" viewBox="0 0 25 24" fill="none" xmlns="http://www.w3.org/2000/svg">
<g clip-path="url(#clip0_10_1647)">
<path d="M12.353 24C19.0454 24 24.4706 18.6274 24.4706 12C24.4706 5.37258 19.0454 0 12.353 0C5.66061 0 0.235352 5.37258 0.235352 12C0.235352 18.6274 5.66061 24 12.353 24Z" fill="#8AC9FE"/>
<path d="M18.3652 1.57935C19.6194 3.46925 20.3499 5.7305 20.3499 8.16106C20.3499 14.7885 14.9246 20.1611 8.23221 20.1611C6.04412 20.1611 3.9916 19.5865 2.21973 18.5818C4.38552 21.8451 8.11468 24.0001 12.3527 24.0001C19.0451 24.0001 24.4703 18.6275 24.4703 12.0001C24.4703 7.5395 22.0126 3.64761 18.3652 1.57935Z" fill="#60B7FF"/>
<path d="M12.3533 22.4493C18.1808 22.4493 22.9049 17.7711 22.9049 12.0002C22.9049 6.22927 18.1808 1.55103 12.3533 1.55103C6.52586 1.55103 1.80176 6.22927 1.80176 12.0002C1.80176 17.7711 6.52586 22.4493 12.3533 22.4493Z" fill="#EAF6FF"/>
<path d="M12.3534 17.8475C12.2241 17.8475 12.0947 17.8152 11.978 17.7507L7.37914 15.2084C7.13542 15.0737 6.98438 14.8188 6.98438 14.5424V9.45765C6.98438 9.18123 7.13542 8.92642 7.37914 8.7917L11.978 6.24934C12.2114 6.12034 12.4955 6.12034 12.7288 6.24934L17.3277 8.7917C17.5715 8.92642 17.7225 9.18123 17.7225 9.45765V14.5424C17.7225 14.8188 17.5715 15.0737 17.3277 15.2084L12.7288 17.7507C12.6122 17.8152 12.4828 17.8475 12.3534 17.8475ZM8.72771 14.2068L12.1605 16.1045C12.2804 16.1709 12.4265 16.1709 12.5464 16.1045L15.9792 14.2068C16.1045 14.1376 16.1821 14.0066 16.1821 13.8645V10.1355C16.1821 9.99343 16.1045 9.86242 15.9792 9.79318L12.5464 7.89549C12.4265 7.82917 12.2804 7.82917 12.1605 7.89549L8.72771 9.79318C8.60241 9.86246 8.52478 9.99343 8.52478 10.1355V13.8645C8.52474 14.0066 8.60241 14.1376 8.72771 14.2068Z" fill="#60B7FF"/>
<path d="M19.8101 4.60718C20.1612 5.73021 20.3505 6.92369 20.3505 8.16101C20.3505 14.7884 14.9253 20.161 8.23289 20.161C7.24132 20.161 6.27788 20.0422 5.35547 19.8197C7.21789 21.4554 9.66826 22.4492 12.3534 22.4492C18.1809 22.4492 22.905 17.7709 22.905 12.0001C22.9049 9.11243 21.7221 6.4984 19.8101 4.60718Z" fill="#D8ECFE"/>
</g>
<defs>
<clipPath id="clip0_10_1647">
<rect width="24.2353" height="24" fill="white" transform="translate(0.235352)"/>
</clipPath>
</defs>
</svg>
