<svg width="25" height="24" viewBox="0 0 25 24" fill="none" xmlns="http://www.w3.org/2000/svg">
<g clip-path="url(#clip0_10_1657)">
<path d="M12.4707 24C19.0981 24 24.4707 18.6274 24.4707 12C24.4707 5.37258 19.0981 0 12.4707 0C5.84329 0 0.470703 5.37258 0.470703 12C0.470703 18.6274 5.84329 24 12.4707 24Z" fill="#5DE1C4"/>
<path d="M18.1673 1.43579C19.3607 3.30057 20.0526 5.5171 20.0526 7.89535C20.0526 14.5228 14.6801 19.8953 8.05265 19.8953C5.99113 19.8953 4.05121 19.3753 2.35645 18.4595C4.48865 21.7913 8.22191 24 12.4711 24C19.0986 24 24.4711 18.6274 24.4711 12C24.4711 7.43406 21.9209 3.46398 18.1673 1.43579Z" fill="#0ED2B3"/>
<path d="M12.4706 22.4249C18.2415 22.4249 22.9198 17.7467 22.9198 11.9758C22.9198 6.20485 18.2415 1.52661 12.4706 1.52661C6.69972 1.52661 2.02148 6.20485 2.02148 11.9758C2.02148 17.7467 6.69972 22.4249 12.4706 22.4249Z" fill="#D8F6EF"/>
<path d="M19.4989 4.22998C19.8697 5.3862 20.0703 6.61864 20.0703 7.89804C20.0703 14.5255 14.6977 19.898 8.07027 19.898C7.12434 19.898 6.20409 19.7883 5.32129 19.5813C7.19226 21.3458 9.71404 22.4277 12.4888 22.4277C18.2597 22.4277 22.9379 17.7494 22.9379 11.9786C22.9379 8.9052 21.611 6.14192 19.4989 4.22998Z" fill="#C6F2E7"/>
<path d="M15.667 17.1878H16.8558C17.3275 17.1878 17.7099 16.8073 17.7099 16.338V15.0464C17.1193 15.8416 16.4326 16.561 15.667 17.1878Z" fill="#0AB69F"/>
<path d="M17.709 16.3379C17.709 16.8072 17.3266 17.1876 16.8549 17.1876L12.1719 17.1782C10.8514 17.1043 9.62142 16.5437 8.69948 15.5932C7.75279 14.6171 7.23145 13.3325 7.23145 11.9758C7.23145 9.10195 9.58157 6.76392 12.4702 6.76392C13.834 6.76392 15.1253 7.28259 16.1064 8.2244C17.0618 9.1416 17.6253 10.3652 17.6996 11.679L17.709 16.3379ZM16.1202 11.8336C16.0447 9.87496 14.4414 8.34074 12.4702 8.34074C10.4555 8.34074 8.81643 9.97139 8.81643 11.9758C8.81643 13.9368 10.3586 15.5318 12.3273 15.6069L16.0078 15.6108C16.072 15.6108 16.1241 15.5587 16.1241 15.4945L16.1202 11.8336Z" fill="#5DE1C4"/>
</g>
<defs>
<clipPath id="clip0_10_1657">
<rect width="24" height="24" fill="white" transform="translate(0.470703)"/>
</clipPath>
</defs>
</svg>
