<svg width="42" height="42" viewBox="0 0 42 42" fill="none" xmlns="http://www.w3.org/2000/svg">
<circle cx="21" cy="21" r="21" fill="#EF443B"/>
<path d="M17.248 27.16C16.4907 27.16 15.8453 27.048 15.312 26.824C14.7787 26.6 14.3413 26.2907 14 25.896C13.6587 25.5013 13.4027 25.048 13.232 24.536C13.0613 24.0133 12.96 23.4587 12.928 22.872C12.9173 22.584 12.9067 22.2693 12.896 21.928C12.896 21.576 12.896 21.224 12.896 20.872C12.9067 20.52 12.9173 20.1947 12.928 19.896C12.9493 19.3093 13.0507 18.76 13.232 18.248C13.4133 17.7253 13.6747 17.272 14.016 16.888C14.368 16.504 14.8107 16.2 15.344 15.976C15.8773 15.752 16.512 15.64 17.248 15.64C17.9947 15.64 18.6347 15.752 19.168 15.976C19.7013 16.2 20.1387 16.504 20.48 16.888C20.832 17.272 21.0933 17.7253 21.264 18.248C21.4453 18.76 21.5467 19.3093 21.568 19.896C21.5893 20.1947 21.6 20.52 21.6 20.872C21.6 21.224 21.6 21.576 21.6 21.928C21.6 22.2693 21.5893 22.584 21.568 22.872C21.5467 23.4587 21.4507 24.0133 21.28 24.536C21.1093 25.048 20.8533 25.5013 20.512 25.896C20.1707 26.2907 19.728 26.6 19.184 26.824C18.6507 27.048 18.0053 27.16 17.248 27.16ZM17.248 25.32C17.9413 25.32 18.448 25.096 18.768 24.648C19.0987 24.1893 19.2693 23.5707 19.28 22.792C19.3013 22.4827 19.312 22.1733 19.312 21.864C19.312 21.544 19.312 21.224 19.312 20.904C19.312 20.584 19.3013 20.28 19.28 19.992C19.2693 19.2347 19.0987 18.6267 18.768 18.168C18.448 17.6987 17.9413 17.464 17.248 17.464C16.5653 17.464 16.0587 17.6987 15.728 18.168C15.408 18.6267 15.2373 19.2347 15.216 19.992C15.216 20.28 15.2107 20.584 15.2 20.904C15.2 21.224 15.2 21.544 15.2 21.864C15.2107 22.1733 15.216 22.4827 15.216 22.792C15.2373 23.5707 15.4133 24.1893 15.744 24.648C16.0747 25.096 16.576 25.32 17.248 25.32ZM28.8356 27C28.729 27 28.6383 26.9627 28.5636 26.888C28.489 26.8133 28.4516 26.7227 28.4516 26.616V24.568H23.3796C23.2623 24.568 23.1663 24.5307 23.0916 24.456C23.0276 24.3813 22.9956 24.2907 22.9956 24.184V23.096C22.9956 23.032 23.0063 22.9573 23.0276 22.872C23.0596 22.776 23.1076 22.6907 23.1716 22.616L27.8916 16.072C28.0303 15.8907 28.2276 15.8 28.4836 15.8H30.2276C30.3343 15.8 30.425 15.8373 30.4996 15.912C30.5743 15.9867 30.6116 16.0773 30.6116 16.184V22.68H32.0356C32.1636 22.68 32.2596 22.7173 32.3236 22.792C32.3983 22.856 32.4356 22.9467 32.4356 23.064V24.184C32.4356 24.2907 32.3983 24.3813 32.3236 24.456C32.249 24.5307 32.1583 24.568 32.0516 24.568H30.6116V26.616C30.6116 26.7227 30.5743 26.8133 30.4996 26.888C30.425 26.9627 30.3343 27 30.2276 27H28.8356ZM25.2196 22.744H28.4996V18.12L25.2196 22.744Z" fill="#160E33"/>
</svg>
