<svg width="42" height="42" viewBox="0 0 42 42" fill="none" xmlns="http://www.w3.org/2000/svg">
<circle cx="21" cy="21" r="21" fill="#EF443B"/>
<path d="M17.248 27.16C16.4907 27.16 15.8453 27.048 15.312 26.824C14.7787 26.6 14.3413 26.2907 14 25.896C13.6587 25.5013 13.4027 25.048 13.232 24.536C13.0613 24.0133 12.96 23.4587 12.928 22.872C12.9173 22.584 12.9067 22.2693 12.896 21.928C12.896 21.576 12.896 21.224 12.896 20.872C12.9067 20.52 12.9173 20.1947 12.928 19.896C12.9493 19.3093 13.0507 18.76 13.232 18.248C13.4133 17.7253 13.6747 17.272 14.016 16.888C14.368 16.504 14.8107 16.2 15.344 15.976C15.8773 15.752 16.512 15.64 17.248 15.64C17.9947 15.64 18.6347 15.752 19.168 15.976C19.7013 16.2 20.1387 16.504 20.48 16.888C20.832 17.272 21.0933 17.7253 21.264 18.248C21.4453 18.76 21.5467 19.3093 21.568 19.896C21.5893 20.1947 21.6 20.52 21.6 20.872C21.6 21.224 21.6 21.576 21.6 21.928C21.6 22.2693 21.5893 22.584 21.568 22.872C21.5467 23.4587 21.4507 24.0133 21.28 24.536C21.1093 25.048 20.8533 25.5013 20.512 25.896C20.1707 26.2907 19.728 26.6 19.184 26.824C18.6507 27.048 18.0053 27.16 17.248 27.16ZM17.248 25.32C17.9413 25.32 18.448 25.096 18.768 24.648C19.0987 24.1893 19.2693 23.5707 19.28 22.792C19.3013 22.4827 19.312 22.1733 19.312 21.864C19.312 21.544 19.312 21.224 19.312 20.904C19.312 20.584 19.3013 20.28 19.28 19.992C19.2693 19.2347 19.0987 18.6267 18.768 18.168C18.448 17.6987 17.9413 17.464 17.248 17.464C16.5653 17.464 16.0587 17.6987 15.728 18.168C15.408 18.6267 15.2373 19.2347 15.216 19.992C15.216 20.28 15.2107 20.584 15.2 20.904C15.2 21.224 15.2 21.544 15.2 21.864C15.2107 22.1733 15.216 22.4827 15.216 22.792C15.2373 23.5707 15.4133 24.1893 15.744 24.648C16.0747 25.096 16.576 25.32 17.248 25.32ZM23.6196 27C23.513 27 23.4223 26.9627 23.3476 26.888C23.273 26.8133 23.2356 26.7227 23.2356 26.616V25.8C23.2356 25.704 23.257 25.592 23.2996 25.464C23.353 25.3253 23.465 25.1867 23.6356 25.048L26.1636 22.536C26.8676 21.9813 27.433 21.512 27.8596 21.128C28.297 20.7333 28.6116 20.376 28.8036 20.056C29.0063 19.7253 29.1076 19.4 29.1076 19.08C29.1076 18.6 28.9743 18.2107 28.7076 17.912C28.4516 17.6133 28.041 17.464 27.4756 17.464C27.1023 17.464 26.7876 17.544 26.5316 17.704C26.2756 17.8533 26.073 18.056 25.9236 18.312C25.785 18.568 25.689 18.8507 25.6356 19.16C25.6143 19.2987 25.5556 19.3947 25.4596 19.448C25.3636 19.5013 25.2676 19.528 25.1716 19.528H23.7476C23.6516 19.528 23.5716 19.496 23.5076 19.432C23.4436 19.368 23.4116 19.2933 23.4116 19.208C23.4223 18.7493 23.5183 18.3067 23.6996 17.88C23.881 17.4427 24.1423 17.0587 24.4836 16.728C24.8356 16.3867 25.2623 16.1147 25.7636 15.912C26.265 15.7093 26.8303 15.608 27.4596 15.608C28.345 15.608 29.0756 15.7573 29.6516 16.056C30.2383 16.3547 30.6756 16.76 30.9636 17.272C31.2623 17.784 31.4116 18.36 31.4116 19C31.4116 19.5013 31.3156 19.9653 31.1236 20.392C30.9316 20.808 30.6543 21.2133 30.2916 21.608C29.929 21.992 29.4916 22.3867 28.9796 22.792L26.7076 25.096H31.2676C31.385 25.096 31.4756 25.1333 31.5396 25.208C31.6143 25.272 31.6516 25.3627 31.6516 25.48V26.616C31.6516 26.7227 31.6143 26.8133 31.5396 26.888C31.4756 26.9627 31.385 27 31.2676 27H23.6196Z" fill="#160E33"/>
</svg>
