<svg width="42" height="42" viewBox="0 0 42 42" fill="none" xmlns="http://www.w3.org/2000/svg">
<circle cx="21" cy="21" r="21" fill="#EF443B"/>
<path d="M17.248 27.16C16.4907 27.16 15.8453 27.048 15.312 26.824C14.7787 26.6 14.3413 26.2907 14 25.896C13.6587 25.5013 13.4027 25.048 13.232 24.536C13.0613 24.0133 12.96 23.4587 12.928 22.872C12.9173 22.584 12.9067 22.2693 12.896 21.928C12.896 21.576 12.896 21.224 12.896 20.872C12.9067 20.52 12.9173 20.1947 12.928 19.896C12.9493 19.3093 13.0507 18.76 13.232 18.248C13.4133 17.7253 13.6747 17.272 14.016 16.888C14.368 16.504 14.8107 16.2 15.344 15.976C15.8773 15.752 16.512 15.64 17.248 15.64C17.9947 15.64 18.6347 15.752 19.168 15.976C19.7013 16.2 20.1387 16.504 20.48 16.888C20.832 17.272 21.0933 17.7253 21.264 18.248C21.4453 18.76 21.5467 19.3093 21.568 19.896C21.5893 20.1947 21.6 20.52 21.6 20.872C21.6 21.224 21.6 21.576 21.6 21.928C21.6 22.2693 21.5893 22.584 21.568 22.872C21.5467 23.4587 21.4507 24.0133 21.28 24.536C21.1093 25.048 20.8533 25.5013 20.512 25.896C20.1707 26.2907 19.728 26.6 19.184 26.824C18.6507 27.048 18.0053 27.16 17.248 27.16ZM17.248 25.32C17.9413 25.32 18.448 25.096 18.768 24.648C19.0987 24.1893 19.2693 23.5707 19.28 22.792C19.3013 22.4827 19.312 22.1733 19.312 21.864C19.312 21.544 19.312 21.224 19.312 20.904C19.312 20.584 19.3013 20.28 19.28 19.992C19.2693 19.2347 19.0987 18.6267 18.768 18.168C18.448 17.6987 17.9413 17.464 17.248 17.464C16.5653 17.464 16.0587 17.6987 15.728 18.168C15.408 18.6267 15.2373 19.2347 15.216 19.992C15.216 20.28 15.2107 20.584 15.2 20.904C15.2 21.224 15.2 21.544 15.2 21.864C15.2107 22.1733 15.216 22.4827 15.216 22.792C15.2373 23.5707 15.4133 24.1893 15.744 24.648C16.0747 25.096 16.576 25.32 17.248 25.32ZM26.9476 27C26.8303 27 26.7343 26.9627 26.6596 26.888C26.5956 26.8133 26.5636 26.7227 26.5636 26.616V18.328L24.1316 20.2C24.0356 20.264 23.9396 20.2907 23.8436 20.28C23.7476 20.2587 23.6623 20.2 23.5876 20.104L22.9156 19.24C22.8516 19.144 22.825 19.0427 22.8356 18.936C22.857 18.8293 22.9156 18.744 23.0116 18.68L26.5956 15.912C26.6596 15.8587 26.7236 15.8267 26.7876 15.816C26.8516 15.8053 26.921 15.8 26.9956 15.8H28.4036C28.5103 15.8 28.601 15.8373 28.6756 15.912C28.7503 15.9867 28.7876 16.0773 28.7876 16.184V26.616C28.7876 26.7227 28.7503 26.8133 28.6756 26.888C28.601 26.9627 28.5103 27 28.4036 27H26.9476Z" fill="#160E33"/>
</svg>
