<svg width="42" height="42" viewBox="0 0 42 42" fill="none" xmlns="http://www.w3.org/2000/svg">
<circle cx="21" cy="21" r="21" fill="#EF443B"/>
<path d="M17.248 27.16C16.4907 27.16 15.8453 27.048 15.312 26.824C14.7787 26.6 14.3413 26.2907 14 25.896C13.6587 25.5013 13.4027 25.048 13.232 24.536C13.0613 24.0133 12.96 23.4587 12.928 22.872C12.9173 22.584 12.9067 22.2693 12.896 21.928C12.896 21.576 12.896 21.224 12.896 20.872C12.9067 20.52 12.9173 20.1947 12.928 19.896C12.9493 19.3093 13.0507 18.76 13.232 18.248C13.4133 17.7253 13.6747 17.272 14.016 16.888C14.368 16.504 14.8107 16.2 15.344 15.976C15.8773 15.752 16.512 15.64 17.248 15.64C17.9947 15.64 18.6347 15.752 19.168 15.976C19.7013 16.2 20.1387 16.504 20.48 16.888C20.832 17.272 21.0933 17.7253 21.264 18.248C21.4453 18.76 21.5467 19.3093 21.568 19.896C21.5893 20.1947 21.6 20.52 21.6 20.872C21.6 21.224 21.6 21.576 21.6 21.928C21.6 22.2693 21.5893 22.584 21.568 22.872C21.5467 23.4587 21.4507 24.0133 21.28 24.536C21.1093 25.048 20.8533 25.5013 20.512 25.896C20.1707 26.2907 19.728 26.6 19.184 26.824C18.6507 27.048 18.0053 27.16 17.248 27.16ZM17.248 25.32C17.9413 25.32 18.448 25.096 18.768 24.648C19.0987 24.1893 19.2693 23.5707 19.28 22.792C19.3013 22.4827 19.312 22.1733 19.312 21.864C19.312 21.544 19.312 21.224 19.312 20.904C19.312 20.584 19.3013 20.28 19.28 19.992C19.2693 19.2347 19.0987 18.6267 18.768 18.168C18.448 17.6987 17.9413 17.464 17.248 17.464C16.5653 17.464 16.0587 17.6987 15.728 18.168C15.408 18.6267 15.2373 19.2347 15.216 19.992C15.216 20.28 15.2107 20.584 15.2 20.904C15.2 21.224 15.2 21.544 15.2 21.864C15.2107 22.1733 15.216 22.4827 15.216 22.792C15.2373 23.5707 15.4133 24.1893 15.744 24.648C16.0747 25.096 16.576 25.32 17.248 25.32ZM27.4916 27.16C26.745 27.16 26.0996 27.0693 25.5556 26.888C25.0116 26.7067 24.5583 26.472 24.1956 26.184C23.8436 25.8853 23.577 25.5653 23.3956 25.224C23.2143 24.872 23.1183 24.5253 23.1076 24.184C23.1076 24.088 23.1396 24.0133 23.2036 23.96C23.2783 23.896 23.3636 23.864 23.4596 23.864H24.8996C25.0063 23.864 25.097 23.8853 25.1716 23.928C25.2463 23.9707 25.3103 24.056 25.3636 24.184C25.4596 24.472 25.6143 24.7013 25.8276 24.872C26.0516 25.0427 26.3076 25.1653 26.5956 25.24C26.8836 25.304 27.1876 25.336 27.5076 25.336C28.1476 25.336 28.6543 25.1867 29.0276 24.888C29.4116 24.5787 29.6036 24.1413 29.6036 23.576C29.6036 23.0107 29.4276 22.6053 29.0756 22.36C28.7236 22.104 28.233 21.976 27.6036 21.976H25.9556C25.8383 21.976 25.7423 21.944 25.6676 21.88C25.593 21.8053 25.5556 21.7093 25.5556 21.592V20.92C25.5556 20.8133 25.577 20.7227 25.6196 20.648C25.673 20.5627 25.7263 20.4933 25.7796 20.44L28.6436 17.64H24.0676C23.9503 17.64 23.8543 17.6027 23.7796 17.528C23.7156 17.4533 23.6836 17.3627 23.6836 17.256V16.2C23.6836 16.0827 23.7156 15.9867 23.7796 15.912C23.8543 15.8373 23.9503 15.8 24.0676 15.8H30.9316C31.049 15.8 31.145 15.8373 31.2196 15.912C31.2943 15.9867 31.3316 16.0827 31.3316 16.2V17.16C31.3316 17.256 31.3103 17.3413 31.2676 17.416C31.225 17.4907 31.177 17.5547 31.1236 17.608L28.3556 20.456L28.5476 20.472C29.1983 20.5253 29.7743 20.6747 30.2756 20.92C30.7876 21.1547 31.1823 21.5013 31.4596 21.96C31.7476 22.4187 31.8916 22.9947 31.8916 23.688C31.8916 24.4133 31.6996 25.0373 31.3156 25.56C30.9423 26.072 30.425 26.4667 29.7636 26.744C29.1023 27.0213 28.345 27.16 27.4916 27.16Z" fill="#160E33"/>
</svg>
