<svg width="18" height="18" viewBox="0 0 18 18" fill="none" xmlns="http://www.w3.org/2000/svg">
<g clip-path="url(#clip0_10_1592)">
<path d="M13.5 1.85625C12.1781 1.04062 10.6594 0.5625 9 0.5625V1.85625H13.5Z" fill="#ED4C5C"/>
<path d="M9 3.14995H15.075C14.5969 2.67183 14.0625 2.22183 13.5 1.8562H9V3.14995Z" fill="white"/>
<path d="M9 4.4439H16.1156C15.8063 3.96577 15.4688 3.5439 15.1031 3.15015H9V4.4439Z" fill="#ED4C5C"/>
<path d="M9 5.73735H16.7906C16.5937 5.28735 16.3687 4.83735 16.1156 4.4436H9V5.73735Z" fill="white"/>
<path d="M9 7.0313H17.2125C17.1 6.5813 16.9594 6.15942 16.7906 5.73755H9V7.0313Z" fill="#ED4C5C"/>
<path d="M9 8.35308H17.4094C17.3813 7.90308 17.2969 7.4812 17.2125 7.05933H9V8.35308Z" fill="white"/>
<path d="M17.4094 8.35327H9V9.00015H0.5625C0.5625 9.22515 0.5625 9.42202 0.590625 9.64702H17.4094C17.4375 9.42202 17.4375 9.22515 17.4375 9.00015C17.4375 8.77515 17.4375 8.55015 17.4094 8.35327Z" fill="#ED4C5C"/>
<path d="M0.787695 10.9405H17.2127C17.3252 10.5186 17.3814 10.0967 17.4096 9.64673H0.59082C0.618945 10.0686 0.675195 10.5186 0.787695 10.9405Z" fill="white"/>
<path d="M1.20898 12.2344H16.7902C16.959 11.8125 17.0996 11.3907 17.2121 10.9407H0.787109C0.899609 11.3907 1.04023 11.8125 1.20898 12.2344Z" fill="#ED4C5C"/>
<path d="M1.88398 13.5281H16.1152C16.3684 13.1062 16.5934 12.6844 16.7902 12.2344H1.20898C1.40586 12.6844 1.63086 13.1062 1.88398 13.5281Z" fill="white"/>
<path d="M2.89727 14.8218H15.1035C15.4691 14.4281 15.8348 13.9781 16.116 13.5281H1.88477C2.16602 14.0062 2.53164 14.4281 2.89727 14.8218Z" fill="#ED4C5C"/>
<path d="M4.47148 16.1158H13.5277C14.1184 15.7501 14.6246 15.3001 15.1027 14.822H2.89648C3.37461 15.3283 3.90898 15.7501 4.47148 16.1158Z" fill="white"/>
<path d="M8.9998 17.4374C10.6592 17.4374 12.2061 16.9592 13.5279 16.1155H4.47168C5.79355 16.9592 7.34043 17.4374 8.9998 17.4374Z" fill="#ED4C5C"/>
<path d="M4.5 1.85625C3.90937 2.22187 3.375 2.67188 2.89688 3.15C2.50313 3.54375 2.16562 3.99375 1.88437 4.44375C1.63125 4.86562 1.37813 5.2875 1.20938 5.7375C1.04063 6.15937 0.9 6.58125 0.7875 7.03125C0.675 7.45312 0.61875 7.875 0.590625 8.325C0.5625 8.55 0.5625 8.775 0.5625 9H9V0.5625C7.34062 0.5625 5.82188 1.04062 4.5 1.85625Z" fill="#428BC1"/>
<path d="M7.03125 0.84375L7.17188 1.26562H7.59375L7.25625 1.54688L7.36875 1.96875L7.03125 1.71562L6.69375 1.96875L6.80625 1.54688L6.46875 1.26562H6.89062L7.03125 0.84375Z" fill="white"/>
<path d="M8.15625 2.53125L8.29687 2.95312H8.71875L8.38125 3.23438L8.49375 3.65625L8.15625 3.40313L7.81875 3.65625L7.93125 3.23438L7.59375 2.95312H8.01562L8.15625 2.53125Z" fill="white"/>
<path d="M5.90625 2.53125L6.04688 2.95312H6.46875L6.13125 3.23438L6.24375 3.65625L5.90625 3.40313L5.56875 3.65625L5.68125 3.23438L5.34375 2.95312H5.76562L5.90625 2.53125Z" fill="white"/>
<path d="M7.03125 4.21875L7.17188 4.64062H7.59375L7.25625 4.92188L7.36875 5.34375L7.03125 5.09063L6.69375 5.34375L6.80625 4.92188L6.46875 4.64062H6.89062L7.03125 4.21875Z" fill="white"/>
<path d="M4.78125 4.21875L4.92188 4.64062H5.34375L5.00625 4.92188L5.11875 5.34375L4.78125 5.09063L4.44375 5.34375L4.55625 4.92188L4.21875 4.64062H4.64062L4.78125 4.21875Z" fill="white"/>
<path d="M2.53125 4.21875L2.67188 4.64062H3.09375L2.75625 4.92188L2.86875 5.34375L2.53125 5.09063L2.19375 5.34375L2.30625 4.92188L1.96875 4.64062H2.39062L2.53125 4.21875Z" fill="white"/>
<path d="M8.15625 5.90625L8.29687 6.32812H8.71875L8.38125 6.60938L8.49375 7.03125L8.15625 6.77813L7.81875 7.03125L7.93125 6.60938L7.59375 6.32812H8.01562L8.15625 5.90625Z" fill="white"/>
<path d="M5.90625 5.90625L6.04688 6.32812H6.46875L6.13125 6.60938L6.24375 7.03125L5.90625 6.77813L5.56875 7.03125L5.68125 6.60938L5.34375 6.32812H5.76562L5.90625 5.90625Z" fill="white"/>
<path d="M3.65625 5.90625L3.79688 6.32812H4.21875L3.88125 6.60938L3.99375 7.03125L3.65625 6.77813L3.31875 7.03125L3.43125 6.60938L3.09375 6.32812H3.51562L3.65625 5.90625Z" fill="white"/>
<path d="M7.03125 7.59375L7.17188 8.01562H7.59375L7.25625 8.29688L7.36875 8.71875L7.03125 8.46563L6.69375 8.71875L6.80625 8.29688L6.46875 8.01562H6.89062L7.03125 7.59375Z" fill="white"/>
<path d="M4.78125 7.59375L4.92188 8.01562H5.34375L5.00625 8.29688L5.11875 8.71875L4.78125 8.46563L4.44375 8.71875L4.55625 8.29688L4.21875 8.01562H4.64062L4.78125 7.59375Z" fill="white"/>
<path d="M2.53125 7.59375L2.67188 8.01562H3.09375L2.75625 8.29688L2.86875 8.71875L2.53125 8.46563L2.19375 8.71875L2.30625 8.29688L1.96875 8.01562H2.39062L2.53125 7.59375Z" fill="white"/>
<path d="M3.31895 3.65625L3.65645 3.40313L3.99395 3.65625L3.85332 3.23438L4.19082 2.95312H3.76895L3.65645 2.53125L3.51582 2.95312H3.12207L3.45957 3.20625L3.31895 3.65625Z" fill="white"/>
<path d="M1.06855 7.03125L1.40605 6.77813L1.74355 7.03125L1.60293 6.60938L1.94043 6.32812H1.54668L1.40605 5.90625L1.26543 6.32812H0.98418C0.98418 6.35625 0.956055 6.38437 0.956055 6.4125L1.18105 6.58125L1.06855 7.03125Z" fill="white"/>
</g>
<defs>
<clipPath id="clip0_10_1592">
<rect width="18" height="18" fill="white"/>
</clipPath>
</defs>
</svg>
