<svg width="39" height="51" viewBox="0 0 39 51" fill="none" xmlns="http://www.w3.org/2000/svg">
<path d="M10.1945 28.3C7.53449 28.3 5.54449 27.56 4.22449 26.08C2.92449 24.6 2.21449 22.66 2.09449 20.26C2.07449 19.72 2.06449 18.8 2.06449 17.5C2.06449 16.18 2.07449 15.24 2.09449 14.68C2.19449 12.32 2.91449 10.4 4.25449 8.92C5.59449 7.44 7.57449 6.7 10.1945 6.7C12.8345 6.7 14.8245 7.44 16.1645 8.92C17.5045 10.4 18.2145 12.32 18.2945 14.68C18.3345 15.24 18.3545 16.18 18.3545 17.5C18.3545 18.8 18.3345 19.72 18.2945 20.26C18.1945 22.66 17.4845 24.6 16.1645 26.08C14.8645 27.56 12.8745 28.3 10.1945 28.3ZM10.1945 24.85C11.4545 24.85 12.3945 24.44 13.0145 23.62C13.6345 22.78 13.9645 21.61 14.0045 20.11C14.0445 18.95 14.0645 18.07 14.0645 17.47C14.0645 16.81 14.0445 15.94 14.0045 14.86C13.9645 13.38 13.6345 12.22 13.0145 11.38C12.3945 10.54 11.4545 10.12 10.1945 10.12C8.95449 10.12 8.01449 10.54 7.37449 11.38C6.75449 12.22 6.42449 13.38 6.38449 14.86C6.36449 15.4 6.35449 16.27 6.35449 17.47C6.35449 18.65 6.36449 19.53 6.38449 20.11C6.42449 21.61 6.75449 22.78 7.37449 23.62C8.01449 24.44 8.95449 24.85 10.1945 24.85ZM22.1413 28C21.9413 28 21.7713 27.93 21.6313 27.79C21.4913 27.65 21.4213 27.48 21.4213 27.28V25.75C21.4213 25.21 21.6713 24.74 22.1713 24.34L26.9113 19.63C28.9713 18.01 30.4013 16.75 31.2013 15.85C32.0213 14.93 32.4313 14.03 32.4313 13.15C32.4313 12.21 32.1713 11.47 31.6513 10.93C31.1513 10.39 30.3913 10.12 29.3713 10.12C28.3713 10.12 27.5813 10.42 27.0013 11.02C26.4213 11.6 26.0613 12.36 25.9213 13.3C25.8613 13.54 25.7513 13.72 25.5913 13.84C25.4313 13.94 25.2513 13.99 25.0513 13.99H22.3813C22.2013 13.99 22.0513 13.93 21.9313 13.81C21.8113 13.69 21.7513 13.55 21.7513 13.39C21.7913 12.21 22.1113 11.11 22.7113 10.09C23.3113 9.05 24.1813 8.22 25.3213 7.6C26.4613 6.96 27.8013 6.64 29.3413 6.64C30.9413 6.64 32.2913 6.92 33.3913 7.48C34.5113 8.02 35.3513 8.77 35.9113 9.73C36.4713 10.69 36.7513 11.78 36.7513 13C36.7513 14.34 36.3713 15.55 35.6113 16.63C34.8713 17.71 33.7313 18.87 32.1913 20.11L27.9313 24.43H36.4813C36.7013 24.43 36.8713 24.5 36.9913 24.64C37.1313 24.76 37.2013 24.93 37.2013 25.15V27.28C37.2013 27.48 37.1313 27.65 36.9913 27.79C36.8713 27.93 36.7013 28 36.4813 28H22.1413Z" fill="#EF443B"/>
<path d="M4.54035 48C4.45368 48 4.38002 47.974 4.31935 47.922C4.26735 47.8613 4.24135 47.7877 4.24135 47.701V39.212C4.24135 39.1167 4.26735 39.043 4.31935 38.991C4.38002 38.9303 4.45368 38.9 4.54035 38.9H7.49135C8.80002 38.9 9.74469 39.1947 10.3254 39.784C10.906 40.3647 11.2094 41.2443 11.2354 42.423C11.244 42.6743 11.2484 43.0123 11.2484 43.437C11.2484 43.8617 11.244 44.204 11.2354 44.464C11.2094 45.2873 11.0707 45.959 10.8194 46.479C10.5767 46.9903 10.191 47.3717 9.66235 47.623C9.13369 47.8743 8.43169 48 7.55635 48H4.54035ZM7.49135 46.895C8.08935 46.895 8.56169 46.8127 8.90835 46.648C9.26369 46.4833 9.51935 46.2233 9.67535 45.868C9.84002 45.504 9.93102 45.0187 9.94835 44.412C9.96568 43.892 9.97435 43.567 9.97435 43.437C9.97435 43.2983 9.96568 42.9777 9.94835 42.475C9.93102 41.617 9.72735 40.993 9.33735 40.603C8.94735 40.2043 8.31035 40.005 7.42635 40.005H5.51535V46.895H7.49135ZM12.4409 48C12.3716 48 12.3109 47.974 12.2589 47.922C12.2069 47.87 12.1809 47.8093 12.1809 47.74C12.1809 47.6707 12.1852 47.623 12.1939 47.597L15.4179 39.186C15.4872 38.9953 15.6259 38.9 15.8339 38.9H16.7179C16.9259 38.9 17.0646 38.9953 17.1339 39.186L20.3449 47.597L20.3709 47.74C20.3709 47.8093 20.3449 47.87 20.2929 47.922C20.2409 47.974 20.1802 48 20.1109 48H19.4479C19.3526 48 19.2789 47.9783 19.2269 47.935C19.1749 47.883 19.1402 47.831 19.1229 47.779L18.4079 45.933H14.1439L13.4289 47.779C13.4116 47.831 13.3726 47.883 13.3119 47.935C13.2599 47.9783 13.1906 48 13.1039 48H12.4409ZM18.0309 44.815L16.2759 40.2L14.5209 44.815H18.0309ZM23.5514 48C23.4648 48 23.3911 47.974 23.3304 47.922C23.2784 47.8613 23.2524 47.7877 23.2524 47.701V44.633L20.1194 39.329C20.1194 39.3117 20.1151 39.2857 20.1064 39.251C20.0891 39.2163 20.0804 39.186 20.0804 39.16C20.0804 39.0907 20.1064 39.03 20.1584 38.978C20.2104 38.926 20.2711 38.9 20.3404 38.9H21.0164C21.1638 38.9 21.2764 38.9737 21.3544 39.121L23.8894 43.333L26.4244 39.121C26.5198 38.9737 26.6368 38.9 26.7754 38.9H27.4384C27.5164 38.9 27.5814 38.926 27.6334 38.978C27.6854 39.03 27.7114 39.0907 27.7114 39.16C27.7114 39.2033 27.6941 39.2597 27.6594 39.329L24.5394 44.633V47.701C24.5394 47.7877 24.5091 47.8613 24.4484 47.922C24.3878 47.974 24.3141 48 24.2274 48H23.5514ZM31.8587 48.13C31.1394 48.13 30.5154 48.0173 29.9867 47.792C29.4667 47.5667 29.0681 47.272 28.7907 46.908C28.5134 46.5353 28.3661 46.1367 28.3487 45.712C28.3487 45.6427 28.3747 45.582 28.4267 45.53C28.4874 45.4693 28.5567 45.439 28.6347 45.439H29.2977C29.4624 45.439 29.5751 45.5257 29.6357 45.699C29.7137 46.063 29.9347 46.375 30.2987 46.635C30.6714 46.895 31.1914 47.025 31.8587 47.025C32.5781 47.025 33.1197 46.8993 33.4837 46.648C33.8477 46.388 34.0297 46.0283 34.0297 45.569C34.0297 45.2743 33.9387 45.036 33.7567 44.854C33.5834 44.672 33.3234 44.5117 32.9767 44.373C32.6301 44.2343 32.1101 44.061 31.4167 43.853C30.7407 43.6623 30.2034 43.4587 29.8047 43.242C29.4061 43.0253 29.1071 42.7567 28.9077 42.436C28.7084 42.1153 28.6087 41.7123 28.6087 41.227C28.6087 40.759 28.7344 40.3387 28.9857 39.966C29.2457 39.5933 29.6141 39.303 30.0907 39.095C30.5674 38.8783 31.1351 38.77 31.7937 38.77C32.4697 38.77 33.0504 38.8913 33.5357 39.134C34.0211 39.368 34.3894 39.667 34.6407 40.031C34.8921 40.395 35.0264 40.759 35.0437 41.123C35.0437 41.1923 35.0177 41.253 34.9657 41.305C34.9224 41.357 34.8574 41.383 34.7707 41.383H34.0817C33.8997 41.383 33.7871 41.3007 33.7437 41.136C33.6917 40.772 33.4881 40.473 33.1327 40.239C32.7774 39.9963 32.3311 39.875 31.7937 39.875C31.2044 39.875 30.7407 39.9877 30.4027 40.213C30.0647 40.4383 29.8957 40.772 29.8957 41.214C29.8957 41.5087 29.9737 41.7513 30.1297 41.942C30.2944 42.1327 30.5414 42.3017 30.8707 42.449C31.2001 42.5877 31.6811 42.748 32.3137 42.93C33.0504 43.1293 33.6311 43.3373 34.0557 43.554C34.4804 43.762 34.7967 44.0263 35.0047 44.347C35.2127 44.659 35.3167 45.0577 35.3167 45.543C35.3167 46.349 35.0047 46.9817 34.3807 47.441C33.7567 47.9003 32.9161 48.13 31.8587 48.13Z" fill="white"/>
</svg>
