<svg width="45" height="51" viewBox="0 0 45 51" fill="none" xmlns="http://www.w3.org/2000/svg">
<path d="M14.0795 28C13.8595 28 13.6795 27.93 13.5395 27.79C13.4195 27.65 13.3595 27.48 13.3595 27.28V11.74L8.79953 15.25C8.61953 15.37 8.43953 15.42 8.25953 15.4C8.07953 15.36 7.91953 15.25 7.77953 15.07L6.51953 13.45C6.39953 13.27 6.34953 13.08 6.36953 12.88C6.40953 12.68 6.51953 12.52 6.69953 12.4L13.4195 7.21C13.5395 7.11 13.6595 7.05 13.7795 7.03C13.8995 7.01 14.0295 7 14.1695 7H16.8095C17.0095 7 17.1795 7.07 17.3195 7.21C17.4595 7.35 17.5295 7.52 17.5295 7.72V27.28C17.5295 27.48 17.4595 27.65 17.3195 27.79C17.1795 27.93 17.0095 28 16.8095 28H14.0795ZM21.7263 28C21.5263 28 21.3563 27.93 21.2163 27.79C21.0763 27.65 21.0063 27.48 21.0063 27.28V25.75C21.0063 25.57 21.0463 25.36 21.1263 25.12C21.2263 24.86 21.4363 24.6 21.7563 24.34L26.4963 19.63C27.8163 18.59 28.8763 17.71 29.6763 16.99C30.4963 16.25 31.0863 15.58 31.4463 14.98C31.8263 14.36 32.0163 13.75 32.0163 13.15C32.0163 12.25 31.7663 11.52 31.2663 10.96C30.7863 10.4 30.0163 10.12 28.9563 10.12C28.2563 10.12 27.6663 10.27 27.1863 10.57C26.7063 10.85 26.3263 11.23 26.0463 11.71C25.7863 12.19 25.6063 12.72 25.5063 13.3C25.4663 13.56 25.3563 13.74 25.1763 13.84C24.9963 13.94 24.8163 13.99 24.6363 13.99H21.9663C21.7863 13.99 21.6363 13.93 21.5163 13.81C21.3963 13.69 21.3363 13.55 21.3363 13.39C21.3563 12.53 21.5363 11.7 21.8763 10.9C22.2163 10.08 22.7063 9.36 23.3463 8.74C24.0063 8.1 24.8063 7.59 25.7463 7.21C26.6863 6.83 27.7463 6.64 28.9263 6.64C30.5863 6.64 31.9563 6.92 33.0363 7.48C34.1363 8.04 34.9563 8.8 35.4962 9.76C36.0563 10.72 36.3363 11.8 36.3363 13C36.3363 13.94 36.1563 14.81 35.7963 15.61C35.4363 16.39 34.9163 17.15 34.2363 17.89C33.5563 18.61 32.7363 19.35 31.7763 20.11L27.5163 24.43H36.0663C36.2863 24.43 36.4563 24.5 36.5763 24.64C36.7163 24.76 36.7863 24.93 36.7863 25.15V27.28C36.7863 27.48 36.7163 27.65 36.5763 27.79C36.4563 27.93 36.2863 28 36.0663 28H21.7263Z" fill="#EF443B"/>
<path d="M1.53693 48C1.4416 48 1.36793 47.974 1.31593 47.922C1.26393 47.8613 1.23793 47.7877 1.23793 47.701V39.212C1.23793 39.1167 1.26393 39.043 1.31593 38.991C1.36793 38.9303 1.4416 38.9 1.53693 38.9H2.19993C2.29527 38.9 2.36893 38.9303 2.42093 38.991C2.4816 39.043 2.51193 39.1167 2.51193 39.212V42.8H6.98393V39.212C6.98393 39.1167 7.00993 39.043 7.06193 38.991C7.1226 38.9303 7.19627 38.9 7.28293 38.9H7.94593C8.04127 38.9 8.11493 38.9303 8.16693 38.991C8.2276 39.043 8.25793 39.1167 8.25793 39.212V47.701C8.25793 47.7877 8.2276 47.8613 8.16693 47.922C8.11493 47.974 8.04127 48 7.94593 48H7.28293C7.19627 48 7.1226 47.974 7.06193 47.922C7.00993 47.8613 6.98393 47.7877 6.98393 47.701V43.97H2.51193V47.701C2.51193 47.7877 2.4816 47.8613 2.42093 47.922C2.36893 47.974 2.29527 48 2.19993 48H1.53693ZM13.7685 48.13C13.0318 48.13 12.3992 48.0043 11.8705 47.753C11.3418 47.493 10.9345 47.0987 10.6485 46.57C10.3625 46.0327 10.2022 45.361 10.1675 44.555C10.1588 44.1737 10.1545 43.8097 10.1545 43.463C10.1545 43.1077 10.1588 42.7393 10.1675 42.358C10.2022 41.5607 10.3668 40.8977 10.6615 40.369C10.9648 39.8317 11.3808 39.433 11.9095 39.173C12.4468 38.9043 13.0665 38.77 13.7685 38.77C14.4792 38.77 15.0988 38.9043 15.6275 39.173C16.1648 39.433 16.5852 39.8317 16.8885 40.369C17.1918 40.8977 17.3565 41.5607 17.3825 42.358C17.3998 42.7393 17.4085 43.1077 17.4085 43.463C17.4085 43.8097 17.3998 44.1737 17.3825 44.555C17.3565 45.361 17.1962 46.0327 16.9015 46.57C16.6155 47.0987 16.2082 47.493 15.6795 47.753C15.1508 48.0043 14.5138 48.13 13.7685 48.13ZM13.7685 47.025C14.4358 47.025 14.9775 46.8257 15.3935 46.427C15.8182 46.0283 16.0478 45.3827 16.0825 44.49C16.0998 44.1 16.1085 43.7533 16.1085 43.45C16.1085 43.138 16.0998 42.7913 16.0825 42.41C16.0652 41.812 15.9525 41.3267 15.7445 40.954C15.5452 40.5813 15.2765 40.3083 14.9385 40.135C14.6005 39.9617 14.2105 39.875 13.7685 39.875C13.3438 39.875 12.9625 39.9617 12.6245 40.135C12.2865 40.3083 12.0135 40.5813 11.8055 40.954C11.6062 41.3267 11.4935 41.812 11.4675 42.41C11.4588 42.7913 11.4545 43.138 11.4545 43.45C11.4545 43.7533 11.4588 44.1 11.4675 44.49C11.5022 45.3827 11.7318 46.0283 12.1565 46.427C12.5812 46.8257 13.1185 47.025 13.7685 47.025ZM22.7354 48.13C22.0074 48.13 21.379 48 20.8504 47.74C20.3304 47.48 19.9274 47.0857 19.6414 46.557C19.364 46.0197 19.2254 45.3307 19.2254 44.49V39.212C19.2254 39.1167 19.2514 39.043 19.3034 38.991C19.3554 38.9303 19.429 38.9 19.5244 38.9H20.1874C20.2827 38.9 20.3564 38.9303 20.4084 38.991C20.469 39.043 20.4994 39.1167 20.4994 39.212V44.516C20.4994 45.3653 20.6987 45.9937 21.0974 46.401C21.496 46.8083 22.042 47.012 22.7354 47.012C23.42 47.012 23.9617 46.8083 24.3604 46.401C24.7677 45.9937 24.9714 45.3653 24.9714 44.516V39.212C24.9714 39.1167 24.9974 39.043 25.0494 38.991C25.11 38.9303 25.1837 38.9 25.2704 38.9H25.9464C26.033 38.9 26.1024 38.9303 26.1544 38.991C26.215 39.043 26.2454 39.1167 26.2454 39.212V44.49C26.2454 45.3307 26.1024 46.0197 25.8164 46.557C25.539 47.0857 25.1404 47.48 24.6204 47.74C24.1004 48 23.472 48.13 22.7354 48.13ZM28.7176 48C28.6223 48 28.5486 47.974 28.4966 47.922C28.4446 47.8613 28.4186 47.7877 28.4186 47.701V39.212C28.4186 39.1167 28.4446 39.043 28.4966 38.991C28.5486 38.9303 28.6223 38.9 28.7176 38.9H31.8896C32.8689 38.9 33.6446 39.1297 34.2166 39.589C34.7886 40.0483 35.0746 40.7287 35.0746 41.63C35.0746 42.2973 34.9056 42.8433 34.5676 43.268C34.2383 43.684 33.7876 43.9743 33.2156 44.139L35.2176 47.597C35.2436 47.649 35.2566 47.6967 35.2566 47.74C35.2566 47.8093 35.2263 47.87 35.1656 47.922C35.1136 47.974 35.0529 48 34.9836 48H34.3596C34.2123 48 34.1039 47.961 34.0346 47.883C33.9653 47.805 33.9046 47.727 33.8526 47.649L31.9676 44.347H29.6926V47.701C29.6926 47.7877 29.6623 47.8613 29.6016 47.922C29.5496 47.974 29.4759 48 29.3806 48H28.7176ZM29.6926 43.242H31.8376C32.4876 43.242 32.9729 43.1077 33.2936 42.839C33.6143 42.5617 33.7746 42.1543 33.7746 41.617C33.7746 41.0883 33.6143 40.6853 33.2936 40.408C32.9816 40.1307 32.4963 39.992 31.8376 39.992H29.6926V43.242ZM39.8622 48.13C39.1082 48.13 38.4755 48.0173 37.9642 47.792C37.4528 47.558 37.0585 47.259 36.7812 46.895C36.5125 46.5223 36.3695 46.128 36.3522 45.712C36.3522 45.6427 36.3782 45.582 36.4302 45.53C36.4908 45.4693 36.5602 45.439 36.6382 45.439H37.3012C37.4052 45.439 37.4832 45.465 37.5352 45.517C37.5872 45.569 37.6218 45.6297 37.6392 45.699C37.6825 45.907 37.7865 46.115 37.9512 46.323C38.1245 46.5223 38.3628 46.6913 38.6662 46.83C38.9782 46.96 39.3768 47.025 39.8622 47.025C40.6075 47.025 41.1535 46.895 41.5002 46.635C41.8555 46.3663 42.0332 46.011 42.0332 45.569C42.0332 45.2657 41.9378 45.023 41.7472 44.841C41.5652 44.6503 41.2835 44.4813 40.9022 44.334C40.5208 44.1867 40.0268 44.0263 39.4202 43.853C38.7875 43.671 38.2632 43.4717 37.8472 43.255C37.4312 43.0383 37.1192 42.7697 36.9112 42.449C36.7118 42.1283 36.6122 41.721 36.6122 41.227C36.6122 40.759 36.7378 40.343 36.9892 39.979C37.2405 39.6063 37.6002 39.3117 38.0682 39.095C38.5448 38.8783 39.1212 38.77 39.7972 38.77C40.3345 38.77 40.8025 38.8437 41.2012 38.991C41.6085 39.1297 41.9465 39.3203 42.2152 39.563C42.4838 39.797 42.6875 40.0527 42.8262 40.33C42.9648 40.5987 43.0385 40.863 43.0472 41.123C43.0472 41.1837 43.0255 41.2443 42.9822 41.305C42.9388 41.357 42.8695 41.383 42.7742 41.383H42.0852C42.0245 41.383 41.9595 41.3657 41.8902 41.331C41.8295 41.2963 41.7818 41.2313 41.7472 41.136C41.6952 40.7807 41.4958 40.4817 41.1492 40.239C40.8025 39.9963 40.3518 39.875 39.7972 39.875C39.2338 39.875 38.7745 39.9833 38.4192 40.2C38.0725 40.4167 37.8992 40.7547 37.8992 41.214C37.8992 41.5087 37.9815 41.7557 38.1462 41.955C38.3108 42.1457 38.5708 42.3147 38.9262 42.462C39.2815 42.6093 39.7452 42.7653 40.3172 42.93C41.0105 43.1207 41.5782 43.3243 42.0202 43.541C42.4622 43.749 42.7872 44.0133 42.9952 44.334C43.2118 44.646 43.3202 45.049 43.3202 45.543C43.3202 46.089 43.1772 46.557 42.8912 46.947C42.6052 47.3283 42.2022 47.623 41.6822 47.831C41.1708 48.0303 40.5642 48.13 39.8622 48.13Z" fill="white"/>
</svg>
