<svg width="56" height="51" viewBox="0 0 56 51" fill="none" xmlns="http://www.w3.org/2000/svg">
<path d="M11.3346 28C11.1346 28 10.9646 27.93 10.8246 27.79C10.6846 27.65 10.6146 27.48 10.6146 27.28V25.75C10.6146 25.57 10.6546 25.36 10.7346 25.12C10.8346 24.86 11.0446 24.6 11.3646 24.34L16.1046 19.63C17.4246 18.59 18.4846 17.71 19.2846 16.99C20.1046 16.25 20.6946 15.58 21.0546 14.98C21.4346 14.36 21.6246 13.75 21.6246 13.15C21.6246 12.25 21.3746 11.52 20.8746 10.96C20.3946 10.4 19.6246 10.12 18.5646 10.12C17.8646 10.12 17.2746 10.27 16.7946 10.57C16.3146 10.85 15.9346 11.23 15.6546 11.71C15.3946 12.19 15.2146 12.72 15.1146 13.3C15.0746 13.56 14.9646 13.74 14.7846 13.84C14.6046 13.94 14.4246 13.99 14.2446 13.99H11.5746C11.3946 13.99 11.2446 13.93 11.1246 13.81C11.0046 13.69 10.9446 13.55 10.9446 13.39C10.9646 12.53 11.1446 11.7 11.4846 10.9C11.8246 10.08 12.3146 9.36 12.9546 8.74C13.6146 8.1 14.4146 7.59 15.3546 7.21C16.2946 6.83 17.3546 6.64 18.5346 6.64C20.1946 6.64 21.5646 6.92 22.6446 7.48C23.7446 8.04 24.5646 8.8 25.1046 9.76C25.6646 10.72 25.9447 11.8 25.9447 13C25.9447 13.94 25.7646 14.81 25.4046 15.61C25.0446 16.39 24.5246 17.15 23.8446 17.89C23.1646 18.61 22.3446 19.35 21.3846 20.11L17.1246 24.43H25.6746C25.8946 24.43 26.0646 24.5 26.1846 24.64C26.3246 24.76 26.3946 24.93 26.3946 25.15V27.28C26.3946 27.48 26.3246 27.65 26.1846 27.79C26.0646 27.93 25.8946 28 25.6746 28H11.3346ZM37.1689 28.3C35.7689 28.3 34.5589 28.13 33.5389 27.79C32.5189 27.45 31.6689 27.01 30.9889 26.47C30.3289 25.91 29.8289 25.31 29.4889 24.67C29.1489 24.01 28.9689 23.36 28.9489 22.72C28.9489 22.54 29.0089 22.4 29.1289 22.3C29.2689 22.18 29.4289 22.12 29.6089 22.12H32.3089C32.5089 22.12 32.6789 22.16 32.8189 22.24C32.9589 22.32 33.0789 22.48 33.1789 22.72C33.3589 23.26 33.6489 23.69 34.0489 24.01C34.4689 24.33 34.9489 24.56 35.4889 24.7C36.0289 24.82 36.5989 24.88 37.1989 24.88C38.3989 24.88 39.3489 24.6 40.0489 24.04C40.7689 23.46 41.1289 22.64 41.1289 21.58C41.1289 20.52 40.7989 19.76 40.1389 19.3C39.4789 18.82 38.5589 18.58 37.3789 18.58H34.2889C34.0689 18.58 33.8889 18.52 33.7489 18.4C33.6089 18.26 33.5389 18.08 33.5389 17.86V16.6C33.5389 16.4 33.5789 16.23 33.6589 16.09C33.7589 15.93 33.8589 15.8 33.9589 15.7L39.3289 10.45H30.7489C30.5289 10.45 30.3489 10.38 30.2089 10.24C30.0889 10.1 30.0289 9.93 30.0289 9.73V7.75C30.0289 7.53 30.0889 7.35 30.2089 7.21C30.3489 7.07 30.5289 7 30.7489 7H43.6189C43.8389 7 44.0189 7.07 44.1589 7.21C44.2989 7.35 44.3689 7.53 44.3689 7.75V9.55C44.3689 9.73 44.3289 9.89 44.2489 10.03C44.1689 10.17 44.0789 10.29 43.9789 10.39L38.7889 15.73L39.1489 15.76C40.3689 15.86 41.4489 16.14 42.3889 16.6C43.3489 17.04 44.0889 17.69 44.6089 18.55C45.1489 19.41 45.4189 20.49 45.4189 21.79C45.4189 23.15 45.0589 24.32 44.3389 25.3C43.6389 26.26 42.6689 27 41.4289 27.52C40.1889 28.04 38.7689 28.3 37.1689 28.3Z" fill="#EF443B"/>
<path d="M1.6717 48C1.58503 48 1.51137 47.974 1.4507 47.922C1.3987 47.8613 1.3727 47.7877 1.3727 47.701V39.212C1.3727 39.1167 1.3987 39.043 1.4507 38.991C1.51137 38.9303 1.58503 38.9 1.6717 38.9H2.3217C2.4257 38.9 2.5037 38.926 2.5557 38.978C2.6077 39.03 2.63803 39.0733 2.6467 39.108L5.4027 44.36L8.1717 39.108C8.18903 39.0733 8.21937 39.03 8.2627 38.978C8.3147 38.926 8.3927 38.9 8.4967 38.9H9.1337C9.22903 38.9 9.3027 38.9303 9.3547 38.991C9.41537 39.043 9.4457 39.1167 9.4457 39.212V47.701C9.4457 47.7877 9.41537 47.8613 9.3547 47.922C9.3027 47.974 9.22903 48 9.1337 48H8.4967C8.41003 48 8.33637 47.974 8.2757 47.922C8.2237 47.8613 8.1977 47.7877 8.1977 47.701V41.305L6.0267 45.543C5.99203 45.6297 5.94003 45.699 5.8707 45.751C5.80137 45.7943 5.7147 45.816 5.6107 45.816H5.2077C5.09503 45.816 5.00403 45.7943 4.9347 45.751C4.87403 45.699 4.82203 45.6297 4.7787 45.543L2.6077 41.305V47.701C2.6077 47.7877 2.57737 47.8613 2.5167 47.922C2.4647 47.974 2.39537 48 2.3087 48H1.6717ZM11.993 48C11.8977 48 11.824 47.974 11.772 47.922C11.72 47.8613 11.694 47.7877 11.694 47.701V39.199C11.694 39.1123 11.72 39.043 11.772 38.991C11.824 38.9303 11.8977 38.9 11.993 38.9H12.682C12.7687 38.9 12.838 38.9303 12.89 38.991C12.9507 39.043 12.981 39.1123 12.981 39.199V47.701C12.981 47.7877 12.9507 47.8613 12.89 47.922C12.838 47.974 12.7687 48 12.682 48H11.993ZM15.5477 48C15.4523 48 15.3787 47.974 15.3267 47.922C15.2747 47.8613 15.2487 47.7877 15.2487 47.701V39.212C15.2487 39.1167 15.2747 39.043 15.3267 38.991C15.3787 38.9303 15.4523 38.9 15.5477 38.9H16.1457C16.2497 38.9 16.3277 38.926 16.3797 38.978C16.4317 39.0213 16.462 39.056 16.4707 39.082L20.7867 45.712V39.212C20.7867 39.1167 20.8127 39.043 20.8647 38.991C20.9167 38.9303 20.9903 38.9 21.0857 38.9H21.7097C21.805 38.9 21.8787 38.9303 21.9307 38.991C21.9913 39.043 22.0217 39.1167 22.0217 39.212V47.688C22.0217 47.7747 21.9913 47.8483 21.9307 47.909C21.8787 47.9697 21.8093 48 21.7227 48H21.0987C21.0033 48 20.9297 47.974 20.8777 47.922C20.8343 47.87 20.804 47.8353 20.7867 47.818L16.4837 41.253V47.701C16.4837 47.7877 16.4533 47.8613 16.3927 47.922C16.3407 47.974 16.267 48 16.1717 48H15.5477ZM27.707 48.13C26.979 48.13 26.3507 48 25.822 47.74C25.302 47.48 24.899 47.0857 24.613 46.557C24.3357 46.0197 24.197 45.3307 24.197 44.49V39.212C24.197 39.1167 24.223 39.043 24.275 38.991C24.327 38.9303 24.4007 38.9 24.496 38.9H25.159C25.2544 38.9 25.328 38.9303 25.38 38.991C25.4407 39.043 25.471 39.1167 25.471 39.212V44.516C25.471 45.3653 25.6704 45.9937 26.069 46.401C26.4677 46.8083 27.0137 47.012 27.707 47.012C28.3917 47.012 28.9334 46.8083 29.332 46.401C29.7394 45.9937 29.943 45.3653 29.943 44.516V39.212C29.943 39.1167 29.969 39.043 30.021 38.991C30.0817 38.9303 30.1554 38.9 30.242 38.9H30.918C31.0047 38.9 31.074 38.9303 31.126 38.991C31.1867 39.043 31.217 39.1167 31.217 39.212V44.49C31.217 45.3307 31.074 46.0197 30.788 46.557C30.5107 47.0857 30.112 47.48 29.592 47.74C29.072 48 28.4437 48.13 27.707 48.13ZM35.6783 48C35.5916 48 35.5179 47.974 35.4573 47.922C35.4053 47.8613 35.3793 47.7877 35.3793 47.701V40.057H32.8833C32.7966 40.057 32.7229 40.031 32.6623 39.979C32.6103 39.9183 32.5843 39.8447 32.5843 39.758V39.212C32.5843 39.1167 32.6103 39.043 32.6623 38.991C32.7229 38.9303 32.7966 38.9 32.8833 38.9H39.1493C39.2446 38.9 39.3183 38.9303 39.3703 38.991C39.4309 39.043 39.4613 39.1167 39.4613 39.212V39.758C39.4613 39.8447 39.4309 39.9183 39.3703 39.979C39.3183 40.031 39.2446 40.057 39.1493 40.057H36.6663V47.701C36.6663 47.7877 36.6359 47.8613 36.5753 47.922C36.5233 47.974 36.4496 48 36.3543 48H35.6783ZM41.2176 48C41.1223 48 41.0486 47.974 40.9966 47.922C40.9446 47.8613 40.9186 47.7877 40.9186 47.701V39.212C40.9186 39.1167 40.9446 39.043 40.9966 38.991C41.0486 38.9303 41.1223 38.9 41.2176 38.9H46.5866C46.6819 38.9 46.7556 38.9303 46.8076 38.991C46.8596 39.043 46.8856 39.1167 46.8856 39.212V39.706C46.8856 39.8013 46.8596 39.875 46.8076 39.927C46.7556 39.979 46.6819 40.005 46.5866 40.005H42.1666V42.852H46.3006C46.3959 42.852 46.4696 42.8823 46.5216 42.943C46.5736 42.995 46.5996 43.0687 46.5996 43.164V43.645C46.5996 43.7317 46.5736 43.8053 46.5216 43.866C46.4696 43.918 46.3959 43.944 46.3006 43.944H42.1666V46.895H46.6906C46.7859 46.895 46.8596 46.921 46.9116 46.973C46.9636 47.025 46.9896 47.0987 46.9896 47.194V47.701C46.9896 47.7877 46.9636 47.8613 46.9116 47.922C46.8596 47.974 46.7859 48 46.6906 48H41.2176ZM51.7274 48.13C50.9734 48.13 50.3407 48.0173 49.8294 47.792C49.3181 47.558 48.9237 47.259 48.6464 46.895C48.3777 46.5223 48.2347 46.128 48.2174 45.712C48.2174 45.6427 48.2434 45.582 48.2954 45.53C48.3561 45.4693 48.4254 45.439 48.5034 45.439H49.1664C49.2704 45.439 49.3484 45.465 49.4004 45.517C49.4524 45.569 49.4871 45.6297 49.5044 45.699C49.5477 45.907 49.6517 46.115 49.8164 46.323C49.9897 46.5223 50.2281 46.6913 50.5314 46.83C50.8434 46.96 51.2421 47.025 51.7274 47.025C52.4727 47.025 53.0187 46.895 53.3654 46.635C53.7207 46.3663 53.8984 46.011 53.8984 45.569C53.8984 45.2657 53.8031 45.023 53.6124 44.841C53.4304 44.6503 53.1487 44.4813 52.7674 44.334C52.3861 44.1867 51.8921 44.0263 51.2854 43.853C50.6527 43.671 50.1284 43.4717 49.7124 43.255C49.2964 43.0383 48.9844 42.7697 48.7764 42.449C48.5771 42.1283 48.4774 41.721 48.4774 41.227C48.4774 40.759 48.6031 40.343 48.8544 39.979C49.1057 39.6063 49.4654 39.3117 49.9334 39.095C50.4101 38.8783 50.9864 38.77 51.6624 38.77C52.1997 38.77 52.6677 38.8437 53.0664 38.991C53.4737 39.1297 53.8117 39.3203 54.0804 39.563C54.3491 39.797 54.5527 40.0527 54.6914 40.33C54.8301 40.5987 54.9037 40.863 54.9124 41.123C54.9124 41.1837 54.8907 41.2443 54.8474 41.305C54.8041 41.357 54.7347 41.383 54.6394 41.383H53.9504C53.8897 41.383 53.8247 41.3657 53.7554 41.331C53.6947 41.2963 53.6471 41.2313 53.6124 41.136C53.5604 40.7807 53.3611 40.4817 53.0144 40.239C52.6677 39.9963 52.2171 39.875 51.6624 39.875C51.0991 39.875 50.6397 39.9833 50.2844 40.2C49.9377 40.4167 49.7644 40.7547 49.7644 41.214C49.7644 41.5087 49.8467 41.7557 50.0114 41.955C50.1761 42.1457 50.4361 42.3147 50.7914 42.462C51.1467 42.6093 51.6104 42.7653 52.1824 42.93C52.8757 43.1207 53.4434 43.3243 53.8854 43.541C54.3274 43.749 54.6524 44.0133 54.8604 44.334C55.0771 44.646 55.1854 45.049 55.1854 45.543C55.1854 46.089 55.0424 46.557 54.7564 46.947C54.4704 47.3283 54.0674 47.623 53.5474 47.831C53.0361 48.0303 52.4294 48.13 51.7274 48.13Z" fill="white"/>
</svg>
