<svg width="60" height="51" viewBox="0 0 60 51" fill="none" xmlns="http://www.w3.org/2000/svg">
<path d="M20.58 28.3C19.18 28.3 17.97 28.13 16.95 27.79C15.93 27.45 15.08 27.01 14.4 26.47C13.74 25.91 13.24 25.31 12.9 24.67C12.56 24.01 12.38 23.36 12.36 22.72C12.36 22.54 12.42 22.4 12.54 22.3C12.68 22.18 12.84 22.12 13.02 22.12H15.72C15.92 22.12 16.09 22.16 16.23 22.24C16.37 22.32 16.49 22.48 16.59 22.72C16.77 23.26 17.06 23.69 17.46 24.01C17.88 24.33 18.36 24.56 18.9 24.7C19.44 24.82 20.01 24.88 20.61 24.88C21.81 24.88 22.76 24.6 23.46 24.04C24.18 23.46 24.54 22.64 24.54 21.58C24.54 20.52 24.21 19.76 23.55 19.3C22.89 18.82 21.97 18.58 20.79 18.58H17.7C17.48 18.58 17.3 18.52 17.16 18.4C17.02 18.26 16.95 18.08 16.95 17.86V16.6C16.95 16.4 16.99 16.23 17.07 16.09C17.17 15.93 17.27 15.8 17.37 15.7L22.74 10.45H14.16C13.94 10.45 13.76 10.38 13.62 10.24C13.5 10.1 13.44 9.93 13.44 9.73V7.75C13.44 7.53 13.5 7.35 13.62 7.21C13.76 7.07 13.94 7 14.16 7H27.03C27.25 7 27.43 7.07 27.57 7.21C27.71 7.35 27.78 7.53 27.78 7.75V9.55C27.78 9.73 27.74 9.89 27.66 10.03C27.58 10.17 27.49 10.29 27.39 10.39L22.2 15.73L22.56 15.76C23.78 15.86 24.86 16.14 25.8 16.6C26.76 17.04 27.5 17.69 28.02 18.55C28.56 19.41 28.83 20.49 28.83 21.79C28.83 23.15 28.47 24.32 27.75 25.3C27.05 26.26 26.08 27 24.84 27.52C23.6 28.04 22.18 28.3 20.58 28.3ZM39.3265 28.33C37.6065 28.33 36.1565 28.05 34.9765 27.49C33.7965 26.91 32.8965 26.16 32.2765 25.24C31.6765 24.32 31.3565 23.34 31.3165 22.3C31.2965 22.12 31.3465 21.98 31.4665 21.88C31.6065 21.76 31.7665 21.7 31.9465 21.7H34.7365C34.9565 21.7 35.1365 21.75 35.2765 21.85C35.4365 21.93 35.5565 22.08 35.6365 22.3C35.8365 22.9 36.1165 23.39 36.4765 23.77C36.8565 24.15 37.2865 24.43 37.7665 24.61C38.2665 24.79 38.7865 24.88 39.3265 24.88C40.0465 24.88 40.6965 24.74 41.2765 24.46C41.8765 24.16 42.3565 23.72 42.7165 23.14C43.0765 22.56 43.2565 21.85 43.2565 21.01C43.2565 20.27 43.0865 19.63 42.7465 19.09C42.4065 18.55 41.9365 18.13 41.3365 17.83C40.7565 17.51 40.0865 17.35 39.3265 17.35C38.7665 17.35 38.3065 17.42 37.9465 17.56C37.5865 17.7 37.2765 17.86 37.0165 18.04C36.7765 18.22 36.5565 18.38 36.3565 18.52C36.1765 18.66 35.9665 18.73 35.7265 18.73H32.9665C32.7865 18.73 32.6265 18.67 32.4865 18.55C32.3665 18.41 32.3065 18.25 32.3065 18.07L33.3565 7.81C33.3765 7.55 33.4665 7.35 33.6265 7.21C33.7865 7.07 33.9765 7 34.1965 7H45.4765C45.6765 7 45.8465 7.07 45.9865 7.21C46.1265 7.35 46.1965 7.52 46.1965 7.72V9.73C46.1965 9.93 46.1265 10.1 45.9865 10.24C45.8465 10.38 45.6765 10.45 45.4765 10.45H36.8065L36.3265 15.34C36.6865 15.1 37.1665 14.87 37.7665 14.65C38.3665 14.43 39.1965 14.32 40.2565 14.32C41.2165 14.32 42.1265 14.48 42.9865 14.8C43.8665 15.1 44.6465 15.55 45.3265 16.15C46.0065 16.73 46.5365 17.44 46.9165 18.28C47.3165 19.1 47.5165 20.04 47.5165 21.1C47.5165 22.56 47.1765 23.83 46.4965 24.91C45.8165 25.99 44.8665 26.83 43.6465 27.43C42.4265 28.03 40.9865 28.33 39.3265 28.33Z" fill="#EF443B"/>
<path d="M4.34897 48.13C3.59497 48.13 2.9623 48.0173 2.45097 47.792C1.93964 47.558 1.5453 47.259 1.26797 46.895C0.999302 46.5223 0.856302 46.128 0.838969 45.712C0.838969 45.6427 0.864969 45.582 0.916969 45.53C0.977635 45.4693 1.04697 45.439 1.12497 45.439H1.78797C1.89197 45.439 1.96997 45.465 2.02197 45.517C2.07397 45.569 2.10864 45.6297 2.12597 45.699C2.1693 45.907 2.2733 46.115 2.43797 46.323C2.6113 46.5223 2.84964 46.6913 3.15297 46.83C3.46497 46.96 3.86364 47.025 4.34897 47.025C5.0943 47.025 5.6403 46.895 5.98697 46.635C6.3423 46.3663 6.51997 46.011 6.51997 45.569C6.51997 45.2657 6.42464 45.023 6.23397 44.841C6.05197 44.6503 5.7703 44.4813 5.38897 44.334C5.00764 44.1867 4.51364 44.0263 3.90697 43.853C3.2743 43.671 2.74997 43.4717 2.33397 43.255C1.91797 43.0383 1.60597 42.7697 1.39797 42.449C1.19864 42.1283 1.09897 41.721 1.09897 41.227C1.09897 40.759 1.22464 40.343 1.47597 39.979C1.7273 39.6063 2.08697 39.3117 2.55497 39.095C3.03164 38.8783 3.60797 38.77 4.28397 38.77C4.8213 38.77 5.2893 38.8437 5.68797 38.991C6.0953 39.1297 6.4333 39.3203 6.70197 39.563C6.97064 39.797 7.1743 40.0527 7.31297 40.33C7.45164 40.5987 7.5253 40.863 7.53397 41.123C7.53397 41.1837 7.5123 41.2443 7.46897 41.305C7.42564 41.357 7.3563 41.383 7.26097 41.383H6.57197C6.5113 41.383 6.4463 41.3657 6.37697 41.331C6.3163 41.2963 6.26864 41.2313 6.23397 41.136C6.18197 40.7807 5.98264 40.4817 5.63597 40.239C5.2893 39.9963 4.83864 39.875 4.28397 39.875C3.72064 39.875 3.2613 39.9833 2.90597 40.2C2.5593 40.4167 2.38597 40.7547 2.38597 41.214C2.38597 41.5087 2.4683 41.7557 2.63297 41.955C2.79764 42.1457 3.05764 42.3147 3.41297 42.462C3.7683 42.6093 4.23197 42.7653 4.80397 42.93C5.4973 43.1207 6.06497 43.3243 6.50697 43.541C6.94897 43.749 7.27397 44.0133 7.48197 44.334C7.69864 44.646 7.80697 45.049 7.80697 45.543C7.80697 46.089 7.66397 46.557 7.37797 46.947C7.09197 47.3283 6.68897 47.623 6.16897 47.831C5.65764 48.0303 5.05097 48.13 4.34897 48.13ZM9.80988 48C9.71455 48 9.64088 47.974 9.58888 47.922C9.53688 47.8613 9.51088 47.7877 9.51088 47.701V39.212C9.51088 39.1167 9.53688 39.043 9.58888 38.991C9.64088 38.9303 9.71455 38.9 9.80988 38.9H15.1789C15.2742 38.9 15.3479 38.9303 15.3999 38.991C15.4519 39.043 15.4779 39.1167 15.4779 39.212V39.706C15.4779 39.8013 15.4519 39.875 15.3999 39.927C15.3479 39.979 15.2742 40.005 15.1789 40.005H10.7589V42.852H14.8929C14.9882 42.852 15.0619 42.8823 15.1139 42.943C15.1659 42.995 15.1919 43.0687 15.1919 43.164V43.645C15.1919 43.7317 15.1659 43.8053 15.1139 43.866C15.0619 43.918 14.9882 43.944 14.8929 43.944H10.7589V46.895H15.2829C15.3782 46.895 15.4519 46.921 15.5039 46.973C15.5559 47.025 15.5819 47.0987 15.5819 47.194V47.701C15.5819 47.7877 15.5559 47.8613 15.5039 47.922C15.4519 47.974 15.3782 48 15.2829 48H9.80988ZM20.5818 48.13C19.7845 48.13 19.1215 47.9827 18.5928 47.688C18.0728 47.3933 17.6785 46.9817 17.4098 46.453C17.1411 45.9243 16.9938 45.309 16.9678 44.607C16.9591 44.2517 16.9548 43.8703 16.9548 43.463C16.9548 43.0557 16.9591 42.6657 16.9678 42.293C16.9938 41.591 17.1411 40.9757 17.4098 40.447C17.6785 39.9183 18.0728 39.5067 18.5928 39.212C19.1215 38.9173 19.7845 38.77 20.5818 38.77C21.1798 38.77 21.7041 38.8523 22.1548 39.017C22.6055 39.1817 22.9781 39.4027 23.2728 39.68C23.5761 39.9573 23.8058 40.2693 23.9618 40.616C24.1178 40.954 24.2045 41.305 24.2218 41.669C24.2305 41.747 24.2045 41.812 24.1438 41.864C24.0918 41.916 24.0268 41.942 23.9488 41.942H23.2338C23.1558 41.942 23.0865 41.9203 23.0258 41.877C22.9738 41.8337 22.9348 41.7557 22.9088 41.643C22.7615 40.967 22.4841 40.5033 22.0768 40.252C21.6781 40.0007 21.1755 39.875 20.5688 39.875C19.8755 39.875 19.3251 40.0743 18.9178 40.473C18.5105 40.863 18.2895 41.4913 18.2548 42.358C18.2288 43.0687 18.2288 43.7967 18.2548 44.542C18.2895 45.4087 18.5105 46.0413 18.9178 46.44C19.3251 46.83 19.8755 47.025 20.5688 47.025C21.1755 47.025 21.6781 46.8993 22.0768 46.648C22.4841 46.3967 22.7615 45.933 22.9088 45.257C22.9348 45.1443 22.9738 45.0663 23.0258 45.023C23.0865 44.9797 23.1558 44.958 23.2338 44.958H23.9488C24.0268 44.958 24.0918 44.984 24.1438 45.036C24.2045 45.088 24.2305 45.153 24.2218 45.231C24.2045 45.595 24.1178 45.9503 23.9618 46.297C23.8058 46.635 23.5761 46.9427 23.2728 47.22C22.9781 47.4973 22.6055 47.7183 22.1548 47.883C21.7041 48.0477 21.1798 48.13 20.5818 48.13ZM29.227 48.13C28.4903 48.13 27.8577 48.0043 27.329 47.753C26.8003 47.493 26.393 47.0987 26.107 46.57C25.821 46.0327 25.6607 45.361 25.626 44.555C25.6173 44.1737 25.613 43.8097 25.613 43.463C25.613 43.1077 25.6173 42.7393 25.626 42.358C25.6607 41.5607 25.8253 40.8977 26.12 40.369C26.4233 39.8317 26.8393 39.433 27.368 39.173C27.9053 38.9043 28.525 38.77 29.227 38.77C29.9377 38.77 30.5573 38.9043 31.086 39.173C31.6233 39.433 32.0437 39.8317 32.347 40.369C32.6503 40.8977 32.815 41.5607 32.841 42.358C32.8583 42.7393 32.867 43.1077 32.867 43.463C32.867 43.8097 32.8583 44.1737 32.841 44.555C32.815 45.361 32.6547 46.0327 32.36 46.57C32.074 47.0987 31.6667 47.493 31.138 47.753C30.6093 48.0043 29.9723 48.13 29.227 48.13ZM29.227 47.025C29.8943 47.025 30.436 46.8257 30.852 46.427C31.2767 46.0283 31.5063 45.3827 31.541 44.49C31.5583 44.1 31.567 43.7533 31.567 43.45C31.567 43.138 31.5583 42.7913 31.541 42.41C31.5237 41.812 31.411 41.3267 31.203 40.954C31.0037 40.5813 30.735 40.3083 30.397 40.135C30.059 39.9617 29.669 39.875 29.227 39.875C28.8023 39.875 28.421 39.9617 28.083 40.135C27.745 40.3083 27.472 40.5813 27.264 40.954C27.0647 41.3267 26.952 41.812 26.926 42.41C26.9173 42.7913 26.913 43.138 26.913 43.45C26.913 43.7533 26.9173 44.1 26.926 44.49C26.9607 45.3827 27.1903 46.0283 27.615 46.427C28.0397 46.8257 28.577 47.025 29.227 47.025ZM35.0609 48C34.9655 48 34.8919 47.974 34.8399 47.922C34.7879 47.8613 34.7619 47.7877 34.7619 47.701V39.212C34.7619 39.1167 34.7879 39.043 34.8399 38.991C34.8919 38.9303 34.9655 38.9 35.0609 38.9H35.6589C35.7629 38.9 35.8409 38.926 35.8929 38.978C35.9449 39.0213 35.9752 39.056 35.9839 39.082L40.2999 45.712V39.212C40.2999 39.1167 40.3259 39.043 40.3779 38.991C40.4299 38.9303 40.5035 38.9 40.5989 38.9H41.2229C41.3182 38.9 41.3919 38.9303 41.4439 38.991C41.5045 39.043 41.5349 39.1167 41.5349 39.212V47.688C41.5349 47.7747 41.5045 47.8483 41.4439 47.909C41.3919 47.9697 41.3225 48 41.2359 48H40.6119C40.5165 48 40.4429 47.974 40.3909 47.922C40.3475 47.87 40.3172 47.8353 40.2999 47.818L35.9969 41.253V47.701C35.9969 47.7877 35.9665 47.8613 35.9059 47.922C35.8539 47.974 35.7802 48 35.6849 48H35.0609ZM44.0872 48C43.9919 48 43.9182 47.974 43.8662 47.922C43.8142 47.8613 43.7882 47.7877 43.7882 47.701V39.212C43.7882 39.1167 43.8142 39.043 43.8662 38.991C43.9182 38.9303 43.9919 38.9 44.0872 38.9H47.0382C47.9309 38.9 48.6502 39.0343 49.1962 39.303C49.7422 39.5717 50.1409 39.9703 50.3922 40.499C50.6436 41.019 50.7736 41.6603 50.7822 42.423C50.7909 42.813 50.7952 43.1553 50.7952 43.45C50.7952 43.7447 50.7909 44.0827 50.7822 44.464C50.7649 45.2613 50.6306 45.9243 50.3792 46.453C50.1366 46.973 49.7466 47.363 49.2092 47.623C48.6806 47.8743 47.9786 48 47.1032 48H44.0872ZM45.0622 46.895H47.0382C47.6362 46.895 48.1129 46.8127 48.4682 46.648C48.8236 46.4833 49.0792 46.219 49.2352 45.855C49.3999 45.491 49.4866 45.01 49.4952 44.412C49.5126 44.152 49.5212 43.9267 49.5212 43.736C49.5212 43.5367 49.5212 43.3417 49.5212 43.151C49.5212 42.9517 49.5126 42.7263 49.4952 42.475C49.4779 41.6343 49.2786 41.0147 48.8972 40.616C48.5159 40.2087 47.8746 40.005 46.9732 40.005H45.0622V46.895ZM55.6761 48.13C54.9221 48.13 54.2895 48.0173 53.7781 47.792C53.2668 47.558 52.8725 47.259 52.5951 46.895C52.3265 46.5223 52.1835 46.128 52.1661 45.712C52.1661 45.6427 52.1921 45.582 52.2441 45.53C52.3048 45.4693 52.3741 45.439 52.4521 45.439H53.1151C53.2191 45.439 53.2971 45.465 53.3491 45.517C53.4011 45.569 53.4358 45.6297 53.4531 45.699C53.4965 45.907 53.6005 46.115 53.7651 46.323C53.9385 46.5223 54.1768 46.6913 54.4801 46.83C54.7921 46.96 55.1908 47.025 55.6761 47.025C56.4215 47.025 56.9675 46.895 57.3141 46.635C57.6695 46.3663 57.8471 46.011 57.8471 45.569C57.8471 45.2657 57.7518 45.023 57.5611 44.841C57.3791 44.6503 57.0975 44.4813 56.7161 44.334C56.3348 44.1867 55.8408 44.0263 55.2341 43.853C54.6015 43.671 54.0771 43.4717 53.6611 43.255C53.2451 43.0383 52.9331 42.7697 52.7251 42.449C52.5258 42.1283 52.4261 41.721 52.4261 41.227C52.4261 40.759 52.5518 40.343 52.8031 39.979C53.0545 39.6063 53.4141 39.3117 53.8821 39.095C54.3588 38.8783 54.9351 38.77 55.6111 38.77C56.1485 38.77 56.6165 38.8437 57.0151 38.991C57.4225 39.1297 57.7605 39.3203 58.0291 39.563C58.2978 39.797 58.5015 40.0527 58.6401 40.33C58.7788 40.5987 58.8525 40.863 58.8611 41.123C58.8611 41.1837 58.8395 41.2443 58.7961 41.305C58.7528 41.357 58.6835 41.383 58.5881 41.383H57.8991C57.8385 41.383 57.7735 41.3657 57.7041 41.331C57.6435 41.2963 57.5958 41.2313 57.5611 41.136C57.5091 40.7807 57.3098 40.4817 56.9631 40.239C56.6165 39.9963 56.1658 39.875 55.6111 39.875C55.0478 39.875 54.5885 39.9833 54.2331 40.2C53.8865 40.4167 53.7131 40.7547 53.7131 41.214C53.7131 41.5087 53.7955 41.7557 53.9601 41.955C54.1248 42.1457 54.3848 42.3147 54.7401 42.462C55.0955 42.6093 55.5591 42.7653 56.1311 42.93C56.8245 43.1207 57.3921 43.3243 57.8341 43.541C58.2761 43.749 58.6011 44.0133 58.8091 44.334C59.0258 44.646 59.1341 45.049 59.1341 45.543C59.1341 46.089 58.9911 46.557 58.7051 46.947C58.4191 47.3283 58.0161 47.623 57.4961 47.831C56.9848 48.0303 56.3781 48.13 55.6761 48.13Z" fill="white"/>
</svg>
