<svg width="65" height="65" viewBox="0 0 65 65" fill="none" xmlns="http://www.w3.org/2000/svg">
<path d="M31.9579 29.5208C25.81 27.9229 23.8329 26.2708 23.8329 23.6979C23.8329 20.7458 26.5683 18.6875 31.1454 18.6875C35.9662 18.6875 37.7537 20.9896 37.9162 24.375H43.9016C43.712 19.7167 40.8683 15.4375 35.2079 14.0563V8.125H27.0829V13.975C21.8287 15.1125 17.6037 18.525 17.6037 23.7521C17.6037 30.0083 22.7766 33.1229 30.3329 34.9375C37.1037 36.5625 38.4579 38.9458 38.4579 41.4646C38.4579 43.3333 37.1308 46.3125 31.1454 46.3125C25.5662 46.3125 23.3725 43.8208 23.0745 40.625H17.1162C17.4412 46.5562 21.8829 49.8875 27.0829 50.9979V56.875H35.2079V51.0521C40.4891 50.05 44.687 46.9896 44.687 41.4375C44.687 33.7458 38.1058 31.1187 31.9579 29.5208Z" fill="#EF443B"/>
</svg>
