<svg width="65" height="65" viewBox="0 0 65 65" fill="none" xmlns="http://www.w3.org/2000/svg">
<path d="M48.7497 21.6666H46.0413V16.25C46.0413 8.77498 39.9747 2.70831 32.4997 2.70831C25.0247 2.70831 18.958 8.77498 18.958 16.25V21.6666H16.2497C13.2705 21.6666 10.833 24.1041 10.833 27.0833V54.1666C10.833 57.1458 13.2705 59.5833 16.2497 59.5833H48.7497C51.7288 59.5833 54.1663 57.1458 54.1663 54.1666V27.0833C54.1663 24.1041 51.7288 21.6666 48.7497 21.6666ZM24.3747 16.25C24.3747 11.7541 28.0038 8.12498 32.4997 8.12498C36.9955 8.12498 40.6247 11.7541 40.6247 16.25V21.6666H24.3747V16.25ZM48.7497 54.1666H16.2497V27.0833H48.7497V54.1666ZM32.4997 46.0416C35.4788 46.0416 37.9163 43.6041 37.9163 40.625C37.9163 37.6458 35.4788 35.2083 32.4997 35.2083C29.5205 35.2083 27.083 37.6458 27.083 40.625C27.083 43.6041 29.5205 46.0416 32.4997 46.0416Z" fill="#EF443B"/>
</svg>
