<svg width="65" height="65" viewBox="0 0 65 65" fill="none" xmlns="http://www.w3.org/2000/svg">
<path d="M51.4583 37.9166V48.75H46.0417V37.9166H51.4583ZM18.9583 37.9166V48.75H16.25C14.7604 48.75 13.5417 47.5312 13.5417 46.0416V37.9166H18.9583ZM32.5 2.70831C26.0353 2.70831 19.8355 5.27639 15.2643 9.84759C10.6931 14.4188 8.125 20.6187 8.125 27.0833V46.0416C8.125 50.5375 11.7542 54.1666 16.25 54.1666H24.375V32.5H13.5417V27.0833C13.5417 16.6021 22.0188 8.12498 32.5 8.12498C42.9812 8.12498 51.4583 16.6021 51.4583 27.0833V32.5H40.625V54.1666H51.4583V56.875H32.5V62.2916H48.75C53.2458 62.2916 56.875 58.6625 56.875 54.1666V27.0833C56.875 20.6187 54.3069 14.4188 49.7357 9.84759C45.1645 5.27639 38.9647 2.70831 32.5 2.70831Z" fill="#EF443B"/>
</svg>
