<svg width="65" height="65" viewBox="0 0 65 65" fill="none" xmlns="http://www.w3.org/2000/svg">
<path d="M54.167 16.2501H48.2628C48.5607 15.4105 48.7503 14.4897 48.7503 13.5417C48.7533 11.7944 48.192 10.0928 47.1502 8.69002C46.1083 7.28726 44.6414 6.2583 42.9678 5.75621C41.2941 5.25411 39.5031 5.3057 37.8611 5.9033C36.2191 6.5009 34.8139 7.61259 33.8545 9.073L32.5003 10.8876L31.1462 9.04591C29.6837 6.87925 27.2191 5.41675 24.3753 5.41675C19.8795 5.41675 16.2503 9.04591 16.2503 13.5417C16.2503 14.4897 16.4399 15.4105 16.7378 16.2501H10.8337C7.82741 16.2501 5.44408 18.6605 5.44408 21.6667L5.41699 51.4584C5.41699 54.4647 7.82741 56.8751 10.8337 56.8751H54.167C57.1732 56.8751 59.5837 54.4647 59.5837 51.4584V21.6667C59.5837 18.6605 57.1732 16.2501 54.167 16.2501ZM40.6253 10.8334C42.1149 10.8334 43.3337 12.0522 43.3337 13.5417C43.3337 15.0313 42.1149 16.2501 40.6253 16.2501C39.1357 16.2501 37.917 15.0313 37.917 13.5417C37.917 12.0522 39.1357 10.8334 40.6253 10.8334ZM24.3753 10.8334C25.8649 10.8334 27.0837 12.0522 27.0837 13.5417C27.0837 15.0313 25.8649 16.2501 24.3753 16.2501C22.8857 16.2501 21.667 15.0313 21.667 13.5417C21.667 12.0522 22.8857 10.8334 24.3753 10.8334ZM54.167 51.4584H10.8337V46.0417H54.167V51.4584ZM54.167 37.9167H10.8337V21.6667H24.592L18.9587 29.3313L23.3462 32.5001L29.792 23.7251L32.5003 20.0417L35.2087 23.7251L41.6545 32.5001L46.042 29.3313L40.4087 21.6667H54.167V37.9167Z" fill="#EF443B"/>
</svg>
