<svg width="65" height="65" viewBox="0 0 65 65" fill="none" xmlns="http://www.w3.org/2000/svg">
<path d="M56.875 19.7167V13.5417C56.875 10.5625 54.4375 8.125 51.4583 8.125H13.5417C12.1051 8.125 10.7273 8.69568 9.7115 9.7115C8.69568 10.7273 8.125 12.1051 8.125 13.5417V51.4583C8.125 52.8949 8.69568 54.2727 9.7115 55.2885C10.7273 56.3043 12.1051 56.875 13.5417 56.875H51.4583C54.4375 56.875 56.875 54.4375 56.875 51.4583V45.2833C57.6937 44.8107 58.3744 44.132 58.8495 43.3148C59.3246 42.4976 59.5776 41.5703 59.5833 40.625V24.375C59.5776 23.4297 59.3246 22.5024 58.8495 21.6852C58.3744 20.8679 57.6937 20.1893 56.875 19.7167ZM54.1667 24.375V40.625H35.2083V24.375H54.1667ZM13.5417 51.4583V13.5417H51.4583V18.9583H35.2083C32.2292 18.9583 29.7917 21.3958 29.7917 24.375V40.625C29.7917 43.6042 32.2292 46.0417 35.2083 46.0417H51.4583V51.4583H13.5417Z" fill="#EF443B"/>
<path d="M43.333 36.5625C45.5767 36.5625 47.3955 34.7437 47.3955 32.5C47.3955 30.2563 45.5767 28.4375 43.333 28.4375C41.0894 28.4375 39.2705 30.2563 39.2705 32.5C39.2705 34.7437 41.0894 36.5625 43.333 36.5625Z" fill="#EF443B"/>
</svg>
