<svg width="102" height="18" viewBox="0 0 102 18" fill="none" xmlns="http://www.w3.org/2000/svg">
<path d="M92.9655 6.85352L92.5967 8.33222C93.0148 8.43644 94.3036 8.8616 94.5124 8.02478C94.73 7.15232 93.3836 6.95774 92.9655 6.85352Z" fill="white"/>
<path d="M92.4107 9.07861L92.0039 10.7091C92.5059 10.8338 94.0545 11.3309 94.2834 10.4112C94.5226 9.45211 92.9127 9.20389 92.4107 9.07861Z" fill="white"/>
<path d="M94.6325 2.45177C91.017 1.55015 87.3544 3.75119 86.4531 7.36775C85.5512 10.9838 87.752 14.6466 91.3671 15.5482C94.9837 16.4498 98.6463 14.2491 99.548 10.6329C100.45 7.01657 98.2489 3.35321 94.6325 2.45177ZM95.9757 8.03843C95.8783 8.69597 95.514 9.01439 95.03 9.12581C95.6943 9.47159 96.0326 10.0022 95.7104 10.922C95.3108 12.0641 94.3609 12.1606 93.0982 11.9216L92.7917 13.1499L92.051 12.9654L92.3534 11.7534C92.1561 11.7046 91.9593 11.6536 91.7631 11.6004L91.4597 12.818L90.7199 12.6333L91.0264 11.4028C90.8534 11.3585 90.6777 11.3114 90.4985 11.2665L89.5347 11.0261L89.9023 10.1784C89.9023 10.1784 90.4481 10.3237 90.4407 10.3129C90.6504 10.3649 90.7433 10.2281 90.78 10.1369L91.2644 8.19521C91.2915 8.20187 91.318 8.20835 91.3425 8.21465C91.3174 8.20479 91.2917 8.19656 91.2656 8.18999L91.611 6.80381C91.62 6.64649 91.5659 6.44813 91.266 6.37325C91.2777 6.36533 90.7281 6.23951 90.7281 6.23951L90.9252 5.44841L91.9467 5.70347L91.9458 5.70725C92.0994 5.74541 92.2576 5.78159 92.4189 5.81831L92.7224 4.60205L93.4625 4.78655L93.1652 5.97905C93.3639 6.02441 93.5639 6.07013 93.7586 6.11855L94.054 4.93397L94.7945 5.11847L94.4912 6.33527C95.4261 6.65729 96.11 7.14005 95.9757 8.03843Z" fill="white"/>
<path d="M42.5196 2.52002H31.4762C30.9481 2.52002 30.5195 2.93852 30.5195 3.45386V14.5449C30.5195 15.061 30.9481 15.48 31.4762 15.48H42.5196C43.0481 15.48 43.4795 15.061 43.4795 14.5449V3.45386C43.4795 2.93852 43.0481 2.52002 42.5196 2.52002ZM34.3633 13.5637H32.4401V7.37912H34.3633V13.5637ZM33.4017 6.53348C33.2553 6.53348 33.1104 6.50464 32.9751 6.4486C32.8399 6.39256 32.7171 6.31042 32.6136 6.20688C32.5101 6.10334 32.428 5.98043 32.3721 5.84517C32.3161 5.7099 32.2874 5.56494 32.2875 5.41856C32.2875 5.12308 32.4049 4.8397 32.6138 4.63076C32.8227 4.42183 33.1061 4.30445 33.4016 4.30445C33.6971 4.30445 33.9805 4.42183 34.1894 4.63076C34.3983 4.8397 34.5157 5.12308 34.5157 5.41856C34.5157 5.7141 34.3984 5.99755 34.1895 6.20661C33.9806 6.41567 33.6972 6.53324 33.4017 6.53348ZM41.5625 13.5637H39.6425V10.5563C39.6425 9.83882 39.6284 8.91632 38.6433 8.91632C37.6429 8.91632 37.4904 9.6977 37.4904 10.5043V13.5639H35.5689V7.37912H37.413V8.22368H37.4393C37.696 7.73768 38.3231 7.22486 39.2584 7.22486C41.2034 7.22486 41.5627 8.50538 41.5627 10.1713V13.5637H41.5625Z" fill="white"/>
<path d="M8.13406 12.6705C8.00878 12.8476 7.89016 12.9349 7.77676 12.9349C7.70116 12.9349 7.65814 12.8906 7.64446 12.8028C7.63906 12.7846 7.63906 12.7157 7.63906 12.5832V10.2864H7.07422V12.7531C7.07422 12.9736 7.09294 13.1223 7.12408 13.2168C7.18042 13.3748 7.30606 13.4488 7.48822 13.4488C7.69594 13.4488 7.90942 13.3233 8.13388 13.0656V13.406H8.69962V10.2866H8.13406V12.6705Z" fill="white"/>
<path d="M5.02051 9.80856H5.68543V13.4058H6.31399V9.80856H6.99115V9.21924H5.02051V9.80856Z" fill="white"/>
<path d="M8.87035 7.08112C9.05449 7.08112 9.14269 6.93532 9.14269 6.64354V5.3173C9.14269 5.02588 9.05449 4.88062 8.87035 4.88062C8.68604 4.88062 8.59766 5.02588 8.59766 5.3173V6.64354C8.59784 6.93514 8.68604 7.08112 8.87035 7.08112Z" fill="white"/>
<path d="M10.3376 10.2483C10.1299 10.2483 9.9362 10.3621 9.75386 10.5867V9.21924H9.18848V13.4059H9.75386V13.1031C9.9425 13.3369 10.1367 13.4487 10.3376 13.4487C10.5628 13.4487 10.714 13.3303 10.7896 13.0982C10.8272 12.9659 10.8465 12.7582 10.8465 12.4697V11.2275C10.8465 10.9323 10.8272 10.726 10.7896 10.6006C10.7138 10.3667 10.5628 10.2483 10.3376 10.2483ZM10.2813 12.514C10.2813 12.7957 10.1983 12.9346 10.0354 12.9346C9.9425 12.9346 9.84818 12.8903 9.75368 12.7958V10.8943C9.84818 10.8013 9.94232 10.757 10.0354 10.757C10.1985 10.757 10.2813 10.9013 10.2813 11.1827V12.514Z" fill="white"/>
<path d="M12.1377 10.2483C11.8494 10.2483 11.624 10.3547 11.4609 10.5683C11.3407 10.7258 11.2861 10.9696 11.2861 11.3027V12.3957C11.2861 12.7269 11.3477 12.9733 11.4678 13.129C11.631 13.342 11.856 13.4485 12.1519 13.4485C12.4471 13.4485 12.6788 13.3367 12.8354 13.1107C12.9044 13.0091 12.9496 12.8932 12.9673 12.7717C12.9724 12.715 12.9794 12.5894 12.9794 12.4076V12.3248H12.4025C12.4025 12.5516 12.3955 12.677 12.3903 12.7078C12.358 12.8588 12.2767 12.9344 12.1377 12.9344C11.9437 12.9344 11.8494 12.7904 11.8494 12.5017V11.9488H12.9796V11.3026C12.9796 10.9692 12.9229 10.7257 12.8046 10.5682C12.6464 10.3545 12.4214 10.2483 12.1377 10.2483ZM12.4144 11.4784H11.8494V11.1899C11.8494 10.9015 11.9437 10.7572 12.1327 10.7572C12.3197 10.7572 12.4144 10.9015 12.4144 11.1899V11.4784Z" fill="white"/>
<path d="M14.2195 2.52002H3.77953C3.08653 2.52002 2.51953 3.08702 2.51953 3.78002V14.22C2.51953 14.913 3.08653 15.48 3.77953 15.48H14.2195C14.9125 15.48 15.4795 14.913 15.4795 14.22V3.78002C15.4795 3.08702 14.9125 2.52002 14.2195 2.52002ZM10.1839 4.40462H10.7533V6.72518C10.7533 6.85946 10.7533 6.92912 10.7603 6.94748C10.7729 7.03604 10.8175 7.08122 10.8942 7.08122C11.0083 7.08122 11.1284 6.99266 11.2549 6.81374V4.40462H11.8263V7.55642H11.2549V7.21262C11.0276 7.47344 10.8107 7.60016 10.6024 7.60016C10.4185 7.60016 10.2916 7.52546 10.2345 7.36562C10.203 7.2704 10.1839 7.11938 10.1839 6.8969V4.40462ZM8.02627 5.43206C8.02627 5.09528 8.08369 4.84886 8.20519 4.68956C8.36323 4.47428 8.58571 4.36646 8.87011 4.36646C9.15631 4.36646 9.37843 4.47428 9.53665 4.68956C9.65617 4.84886 9.71395 5.09528 9.71395 5.43206V6.53636C9.71395 6.87116 9.65635 7.11956 9.53665 7.27778C9.37843 7.49252 9.15649 7.60034 8.87011 7.60034C8.58553 7.60034 8.36305 7.49252 8.20519 7.27778C8.08369 7.11956 8.02627 6.87116 8.02627 6.53636V5.43206ZM6.49879 3.32678L6.94861 4.98764L7.38043 3.32678H8.02087L7.25911 5.84354V7.55642H6.62551V5.84354C6.56827 5.5397 6.44155 5.0951 6.23851 4.50524C6.10495 4.11284 5.96581 3.71864 5.83243 3.32678H6.49879ZM13.5127 13.5933C13.3986 14.0906 12.9914 14.4574 12.5018 14.512C11.3419 14.6416 10.1681 14.6423 8.99953 14.6416C7.83079 14.6423 6.65701 14.6416 5.49727 14.512C5.00749 14.4573 4.60105 14.0904 4.48675 13.5933C4.32385 12.8848 4.32385 12.1115 4.32385 11.3825C4.32385 10.6528 4.32565 9.88004 4.48873 9.17138C4.60285 8.67422 5.00947 8.30756 5.49925 8.25284C6.65899 8.12288 7.83277 8.12252 9.00151 8.12288C10.1701 8.12252 11.3439 8.12288 12.5038 8.25284C12.9932 8.30756 13.4002 8.67422 13.5145 9.17138C13.6774 9.88022 13.6765 10.6528 13.6765 11.3825C13.6767 12.1115 13.6758 12.8848 13.5127 13.5933Z" fill="white"/>
<path d="M70.7642 2.52002H59.2349C59.0451 2.52002 58.8632 2.59538 58.729 2.72953C58.5949 2.86368 58.5195 3.04563 58.5195 3.23534V14.7649C58.5196 14.9546 58.595 15.1365 58.7291 15.2706C58.8633 15.4047 59.0452 15.48 59.2349 15.48H65.4418V10.4613H63.7529V8.50538H65.4418V7.06286C65.4418 5.38886 66.4642 4.47752 67.9575 4.47752C68.6728 4.47752 69.2875 4.53062 69.4668 4.55456V6.30398L68.4311 6.30452C67.6189 6.30452 67.4618 6.69044 67.4618 7.25672V8.50556H69.3986L69.1464 10.4614H67.4618V15.48H70.7644C70.9541 15.48 71.136 15.4046 71.2701 15.2704C71.4042 15.1363 71.4795 14.9544 71.4795 14.7647V3.23534C71.4795 3.04563 71.4042 2.86368 71.27 2.72953C71.1359 2.59538 70.9539 2.52002 70.7642 2.52002Z" fill="white"/>
</svg>
